<svg width="361" height="159" viewBox="0 0 361 159" fill="none" xmlns="http://www.w3.org/2000/svg">
<g filter="url(#filter0_nf_3_170)">
<path fill-rule="evenodd" clip-rule="evenodd" d="M314.199 -51.2553L315.22 -49.4943L316.23 -47.7104L317.228 -45.9036L318.211 -44.0737L319.181 -42.2209L320.134 -40.345L321.071 -38.4463L321.991 -36.5248L322.891 -34.5805L323.772 -32.6138L324.632 -30.6247L325.471 -28.6136L326.286 -26.5807L327.077 -24.5263L327.842 -22.4509L328.58 -20.3549L329.29 -18.2388L329.97 -16.1033L330.618 -13.949L331.232 -11.7769L331.81 -9.58784L332.349 -7.38303L332.847 -5.16367L333.302 -2.93117L333.71 -0.687164L334.068 1.56659L334.373 3.82814L334.622 6.09535L334.812 8.36588L334.939 10.6371L335 12.9064L334.991 15.1708L334.909 17.4272L334.75 19.6723L334.513 21.9029L334.194 24.1157L333.79 26.3071L333.3 28.4737L332.722 30.6121L332.054 32.7186L331.296 34.7899L330.446 36.8225L329.504 38.813L328.469 40.7582L327.343 42.6549L326.126 44.5002L324.818 46.2912L323.422 48.0253L321.939 49.7L320.371 51.3133L318.721 52.8631L316.992 54.3478L315.186 55.7662L313.308 57.1172L311.361 58.4001L309.35 59.6146L307.279 60.7607L305.152 61.8387L302.974 62.8494L300.751 63.7939L298.487 64.6736L296.188 65.4905L293.858 66.2466L291.504 66.9445L289.131 67.5872L286.744 68.1778L284.348 68.7198L281.948 69.2171L279.551 69.6738L277.16 70.0941L274.78 70.4827L272.416 70.8444L270.073 71.1839L267.753 71.5065L265.462 71.8173L263.202 72.1216L260.977 72.4245L258.79 72.7315L256.642 73.0479L254.536 73.3787L252.474 73.7292L250.456 74.1045L248.485 74.5092L246.56 74.9482L244.682 75.4258L242.849 75.9461L241.063 76.5132L239.322 77.1306L237.624 77.8015L235.969 78.529L234.353 79.3155L232.775 80.1631L231.233 81.0735L229.723 82.0481L228.243 83.0876L226.79 84.1924L225.359 85.3623L223.948 86.5968L222.552 87.8946L221.168 89.2542L219.793 90.6733L218.421 92.1492L217.05 93.6787L215.675 95.2582L214.292 96.8835L212.897 98.55L211.488 100.253L210.06 101.986L208.609 103.744L207.133 105.52L205.628 107.305L204.09 109.093L202.519 110.874L200.911 112.641L199.264 114.385L197.577 116.097L195.848 117.768L194.078 119.389L192.265 120.953L190.41 122.451L188.514 123.876L186.578 125.22L184.603 126.476L182.591 127.639L180.545 128.702L178.466 129.659L176.358 130.504L174.224 131.234L172.066 131.843L169.889 132.327L167.695 132.683L165.49 132.908L163.277 133L161.061 132.957L158.845 132.779L156.634 132.464L154.432 132.012L152.243 131.425L150.073 130.702L147.924 129.847L145.802 128.862L143.71 127.748L141.651 126.511L139.63 125.153L137.65 123.679L135.714 122.094L133.825 120.405L131.985 118.616L130.198 116.733L128.463 114.765L126.784 112.718L125.162 110.599L123.597 108.416L122.089 106.178L120.639 103.892L119.246 101.566L117.909 99.2103L116.628 96.8322L115.4 94.4406L114.223 92.044L113.095 89.6512L112.013 87.2703L110.974 84.9097L109.975 82.5775L109.01 80.2813L108.077 78.0287L107.171 75.8269L106.287 73.6825L105.42 71.602L104.566 69.591L103.718 67.6551L102.872 65.799L102.022 64.0271L101.163 62.3431L100.29 60.7499L99.3969 59.2502L98.4791 57.8458L97.5313 56.5378L96.5489 55.327L95.5271 54.2131L94.4617 53.1955L93.3487 52.2729L92.1844 51.4434L90.9656 50.7043L89.6893 50.0528L88.3531 49.485L86.9549 48.997L85.4932 48.5842L83.967 48.2416L82.3755 47.9638L80.7188 47.7452L78.9969 47.58L77.2108 47.4619L75.3617 47.3848L73.4512 47.3421L71.4816 47.3273L69.4554 47.3336L67.3758 47.3545L65.2457 47.3836L63.0685 47.415L60.8475 47.4431L58.5859 47.4625L56.2873 47.4684L53.955 47.4559L51.5926 47.421L49.2032 47.3595L46.7904 47.2681L44.3572 47.1433L41.9068 46.9825L39.442 46.7831L36.9655 46.5431L34.4798 46.2606L31.9869 45.9344L29.4889 45.5633L26.988 45.1461L24.4861 44.682L21.9854 44.1699L19.4882 43.609L16.9967 42.9986L14.5131 42.3378L12.0399 41.626L9.57952 40.8626L7.13444 40.0471L4.70718 39.1788L2.30034 38.2576L-0.0834694 37.283L-2.4416 36.2548L-4.7714 35.173L-7.07016 34.0374L-9.33522 32.8481L-11.5639 31.6053L-13.7534 30.3091L-15.9012 28.9601L-18.0046 27.5585L-20.061 26.105L-22.0678 24.6003L-24.0224 23.045L-25.9224 21.4401L-27.7653 19.7865L-29.5488 18.0852L-31.2705 16.3375L-32.9283 14.5445L-34.5198 12.7076L-36.0431 10.8282L-37.4962 8.90781L-38.8771 6.94807L-40.1841 4.95061L-41.4154 2.91719L-42.5694 0.849625L-43.6445 -1.25023L-44.6394 -3.3804L-45.5528 -5.53891L-46.3835 -7.72368L-47.1303 -9.93265L-47.7924 -12.1636L-48.3689 -14.4144L-48.8591 -16.6828L-49.2625 -18.9665L-49.5784 -21.2633L-49.8068 -23.5708L-49.9473 -25.8867L-50 -28.2087L-49.9649 -30.5345L-49.8424 -32.8617L-49.6329 -35.188L-49.3369 -37.5111L-48.9552 -39.8286L-48.4887 -42.1383L-47.9385 -44.438L-47.3058 -46.7255L-46.592 -48.9986L-45.7988 -51.2553L-44.9279 -53.4934L-43.9812 -55.7112L-42.9608 -57.9066L-41.8689 -60.078L-40.7078 -62.2235L-39.4802 -64.3417L-38.1885 -66.4311L-36.8355 -68.4901L-35.424 -70.5176L-33.9568 -72.5124L-32.4368 -74.4735L-30.8668 -76.3998L-29.2499 -78.2906L-27.5889 -80.1452L-25.887 -81.9629L-24.1474 -83.7433L-22.3733 -85.4861L-20.5685 -87.1913L-18.7366 -88.8587L-16.8818 -90.4888L-15.0081 -92.082L-13.1201 -93.639L-11.222 -95.1607L-9.31826 -96.6482L-7.41351 -98.1028L-5.51225 -99.5259L-3.61898 -100.919L-1.7382 -102.285L0.125668 -103.625L1.96825 -104.942L3.78529 -106.238L5.57266 -107.515L7.32655 -108.777L9.04347 -110.027L10.7203 -111.267L12.3542 -112.499L13.943 -113.728L15.4844 -114.956L16.9771 -116.185L18.4197 -117.418L19.8115 -118.659L21.152 -119.909L22.4412 -121.172L23.6793 -122.449L24.8671 -123.742L26.0056 -125.054L27.096 -126.387L28.1399 -127.741L29.1392 -129.119L30.096 -130.521L31.0128 -131.949L31.892 -133.404L32.7364 -134.885L33.5489 -136.394L34.3326 -137.93L35.0907 -139.494L35.8264 -141.085L36.5431 -142.702L37.244 -144.346L37.9328 -146.015L38.6126 -147.708L39.2871 -149.423L39.9594 -151.161L40.633 -152.918L41.3111 -154.693L41.9969 -156.485L42.6934 -158.291L43.4036 -160.11L44.1304 -161.939L44.8764 -163.776L45.6442 -165.619L46.4361 -167.465L47.2545 -169.313L48.1014 -171.159L48.9787 -173.001L49.8881 -174.837L50.8311 -176.665L51.809 -178.481L52.8232 -180.285L53.8744 -182.073L54.9635 -183.843L56.0911 -185.594L57.2577 -187.323L58.4634 -189.029L59.7084 -190.709L60.9926 -192.363L62.3158 -193.988L63.6775 -195.584L65.0773 -197.149L66.5145 -198.682L67.9883 -200.182L69.4979 -201.649L71.0424 -203.082L72.6206 -204.481L74.2315 -205.846L75.874 -207.176L77.5469 -208.471L79.249 -209.732L80.9791 -210.958L82.736 -212.151L84.5185 -213.31L86.3255 -214.436L88.1561 -215.528L90.009 -216.588L91.8833 -217.616L93.7781 -218.612L95.6923 -219.577L97.625 -220.511L99.5751 -221.415L101.542 -222.29L103.523 -223.139L105.519 -223.963L107.528 -224.764L109.55 -225.543L111.582 -226.303L113.626 -227.047L115.68 -227.775L117.744 -228.49L119.817 -229.194L121.899 -229.888L123.991 -230.575L126.091 -231.255L128.201 -231.93L130.32 -232.6L132.449 -233.268L134.588 -233.933L136.738 -234.595L138.898 -235.257L141.07 -235.916L143.254 -236.574L145.45 -237.231L147.659 -237.885L149.881 -238.537L152.117 -239.184L154.368 -239.827L156.634 -240.463L158.915 -241.091L161.211 -241.709L163.523 -242.315L165.85 -242.907L168.194 -243.481L170.553 -244.036L172.927 -244.568L175.316 -245.075L177.719 -245.552L180.135 -245.997L182.564 -246.407L185.004 -246.778L187.455 -247.107L189.914 -247.389L192.38 -247.623L194.852 -247.804L197.327 -247.929L199.804 -247.996L202.28 -248L204.753 -247.94L207.22 -247.811L209.68 -247.613L212.13 -247.343L214.566 -246.997L216.986 -246.576L219.388 -246.076L221.768 -245.497L224.124 -244.838L226.453 -244.097L228.752 -243.274L231.019 -242.369L233.25 -241.383L235.443 -240.314L237.597 -239.164L239.707 -237.934L241.772 -236.624L243.789 -235.236L245.757 -233.772L247.674 -232.232L249.537 -230.62L251.344 -228.937L253.096 -227.186L254.788 -225.368L256.422 -223.487L257.995 -221.545L259.506 -219.545L260.955 -217.49L262.341 -215.382L263.664 -213.226L264.923 -211.023L266.117 -208.777L267.248 -206.492L268.314 -204.17L269.317 -201.815L270.256 -199.43L271.133 -197.018L271.948 -194.583L272.702 -192.128L273.397 -189.656L274.034 -187.172L274.614 -184.677L275.139 -182.176L275.61 -179.671L276.031 -177.167L276.402 -174.664L276.726 -172.168L277.005 -169.68L277.242 -167.203L277.439 -164.74L277.599 -162.294L277.724 -159.867L277.819 -157.461L277.885 -155.08L277.927 -152.724L277.947 -150.398L277.949 -148.101L277.937 -145.838L277.915 -143.609L277.886 -141.416L277.855 -139.26L277.825 -137.144L277.8 -135.067L277.782 -133.03L277.776 -131.033L277.784 -129.077L277.808 -127.162L277.853 -125.286L277.919 -123.45L278.011 -121.653L278.129 -119.894L278.275 -118.172L278.452 -116.486L278.662 -114.834L278.905 -113.215L279.182 -111.627L279.496 -110.069L279.845 -108.539L280.232 -107.035L280.657 -105.555L281.12 -104.097L281.62 -102.66L282.158 -101.24L282.733 -99.8364L283.345 -98.4469L283.994 -97.0691L284.678 -95.7012L285.396 -94.341L286.147 -92.9866L286.931 -91.6358L287.745 -90.287L288.589 -88.938L289.46 -87.5872L290.357 -86.2327L291.278 -84.873L292.222 -83.5064L293.187 -82.1313L294.171 -80.7464L295.172 -79.3503L296.189 -77.9418L297.218 -76.5196L298.26 -75.0827L299.312 -73.6301L300.371 -72.1608L301.438 -70.6741L302.509 -69.169L303.583 -67.645L304.66 -66.1015L305.736 -64.5378L306.811 -62.9534L307.884 -61.348L308.953 -59.7212L310.017 -58.0726L311.075 -56.4019L312.125 -54.7089L313.167 -52.9934L314.199 -51.2553Z" fill="url(#paint0_linear_3_170)"/>
</g>
<defs>
<filter id="filter0_nf_3_170" x="-75.4" y="-273.4" width="435.8" height="431.8" filterUnits="userSpaceOnUse" color-interpolation-filters="sRGB">
<feFlood flood-opacity="0" result="BackgroundImageFix"/>
<feBlend mode="normal" in="SourceGraphic" in2="BackgroundImageFix" result="shape"/>
<feTurbulence type="fractalNoise" baseFrequency="1.1111111640930176 1.1111111640930176" stitchTiles="stitch" numOctaves="3" result="noise" seed="6510" />
<feColorMatrix in="noise" type="luminanceToAlpha" result="alphaNoise" />
<feComponentTransfer in="alphaNoise" result="coloredNoise1">
<feFuncA type="discrete" tableValues="1 1 1 1 1 1 1 1 1 1 1 1 1 1 1 1 1 1 1 1 1 1 1 1 1 1 1 1 1 1 1 1 1 1 1 1 1 1 1 1 1 1 1 1 1 1 1 1 1 1 1 0 0 0 0 0 0 0 0 0 0 0 0 0 0 0 0 0 0 0 0 0 0 0 0 0 0 0 0 0 0 0 0 0 0 0 0 0 0 0 0 0 0 0 0 0 0 0 0 0 "/>
</feComponentTransfer>
<feComposite operator="in" in2="shape" in="coloredNoise1" result="noise1Clipped" />
<feFlood flood-color="rgba(0, 0, 0, 0.25)" result="color1Flood" />
<feComposite operator="in" in2="noise1Clipped" in="color1Flood" result="color1" />
<feMerge result="effect1_noise_3_170">
<feMergeNode in="shape" />
<feMergeNode in="color1" />
</feMerge>
<feGaussianBlur stdDeviation="6.3" result="effect2_foregroundBlur_3_170"/>
</filter>
<linearGradient id="paint0_linear_3_170" x1="-2.5" y1="105" x2="315.479" y2="51.393" gradientUnits="userSpaceOnUse">
<stop stop-color="#EF5E16"/>
<stop offset="1" stop-color="#4838BA"/>
</linearGradient>
</defs>
</svg>
