<svg width="304" height="276" viewBox="0 0 304 276" fill="none" xmlns="http://www.w3.org/2000/svg">
<g filter="url(#filter0_nf_3_171)">
<path fill-rule="evenodd" clip-rule="evenodd" d="M404.233 233.409L403.498 235.97L402.722 238.511L401.907 241.032L401.052 243.533L400.158 246.014L399.227 248.473L398.259 250.911L397.253 253.327L396.212 255.721L395.135 258.092L394.023 260.439L392.877 262.763L391.696 265.063L390.483 267.338L389.236 269.589L387.958 271.815L386.648 274.015L385.306 276.189L383.934 278.338L382.532 280.46L381.101 282.554L379.64 284.622L378.152 286.663L376.636 288.676L375.093 290.661L373.523 292.618L371.928 294.546L370.308 296.446L368.663 298.317L366.994 300.159L365.302 301.971L363.588 303.755L361.851 305.508L360.093 307.232L358.315 308.926L356.516 310.59L354.698 312.223L352.861 313.827L351.006 315.399L349.133 316.942L347.243 318.453L345.336 319.933L343.413 321.383L341.474 322.801L339.52 324.187L337.551 325.542L335.568 326.866L333.571 328.158L331.562 329.417L329.54 330.645L327.506 331.841L325.461 333.005L323.405 334.136L321.34 335.236L319.265 336.304L317.181 337.34L315.09 338.344L312.992 339.317L310.887 340.258L308.776 341.168L306.66 342.046L304.54 342.894L302.416 343.711L300.288 344.497L298.159 345.254L296.028 345.981L293.896 346.679L291.763 347.348L289.631 347.988L287.5 348.601L285.371 349.186L283.244 349.744L281.12 350.276L278.999 350.783L276.883 351.265L274.771 351.724L272.666 352.159L270.566 352.573L268.473 352.966L266.387 353.339L264.308 353.694L262.238 354.031L260.176 354.351L258.123 354.657L256.078 354.948L254.043 355.228L252.017 355.495L250 355.753L247.993 356.002L245.994 356.244L244.005 356.479L242.025 356.709L240.052 356.935L238.088 357.159L236.132 357.382L234.182 357.604L232.24 357.826L230.302 358.051L228.37 358.278L226.443 358.508L224.518 358.743L222.596 358.983L220.676 359.228L218.757 359.479L216.837 359.737L214.915 360.002L212.991 360.273L211.064 360.552L209.131 360.837L207.193 361.13L205.248 361.429L203.295 361.734L201.332 362.045L199.36 362.36L197.376 362.68L195.381 363.003L193.372 363.328L191.35 363.654L189.313 363.98L187.261 364.304L185.193 364.625L183.109 364.942L181.008 365.253L178.889 365.556L176.754 365.85L174.6 366.134L172.429 366.405L170.241 366.663L168.034 366.905L165.811 367.129L163.57 367.335L161.312 367.52L159.038 367.683L156.749 367.822L154.444 367.935L152.125 368.021L149.792 368.079L147.447 368.106L145.09 368.101L142.722 368.063L140.344 367.99L137.959 367.881L135.566 367.735L133.167 367.55L130.764 367.326L128.358 367.061L125.95 366.754L123.542 366.405L121.136 366.011L118.733 365.573L116.335 365.089L113.943 364.559L111.56 363.982L109.187 363.358L106.826 362.686L104.479 361.965L102.147 361.196L99.832 360.378L97.5362 359.511L95.2612 358.595L93.0086 357.631L90.7802 356.618L88.5776 355.556L86.4024 354.446L84.2562 353.289L82.1404 352.085L80.0565 350.834L78.006 349.538L75.99 348.197L74.0099 346.811L72.0668 345.382L70.1618 343.912L68.2959 342.399L66.47 340.847L64.685 339.256L62.9416 337.627L61.2405 335.961L59.5823 334.26L57.9676 332.525L56.3967 330.757L54.8701 328.958L53.388 327.128L51.9507 325.27L50.5582 323.384L49.2107 321.471L47.9083 319.534L46.6508 317.572L45.4383 315.589L44.2706 313.584L43.1476 311.559L42.0692 309.515L41.0351 307.453L40.0449 305.375L39.0985 303.281L38.1952 301.173L37.3345 299.052L36.5159 296.919L35.7385 294.774L35.0018 292.62L34.3048 290.456L33.6466 288.284L33.0264 286.106L32.443 283.92L31.8955 281.729L31.3827 279.534L30.9035 277.334L30.4567 275.131L30.0411 272.925L29.6554 270.717L29.2986 268.506L28.9691 266.294L28.6659 264.082L28.3877 261.868L28.1331 259.653L27.901 257.438L27.6901 255.223L27.4992 253.007L27.3273 250.79L27.1731 248.573L27.0356 246.356L26.9139 244.137L26.8069 241.917L26.714 239.695L26.6343 237.472L26.5671 235.246L26.5119 233.017L26.4681 230.785L26.4353 228.549L26.4132 226.31L26.4016 224.065L26.4003 221.815L26.4092 219.559L26.4285 217.297L26.4581 215.028L26.4985 212.752L26.5499 210.468L26.6127 208.175L26.6875 205.873L26.7748 203.562L26.8754 201.242L26.9899 198.911L27.1192 196.57L27.2644 194.218L27.4262 191.855L27.6058 189.481L27.8044 187.096L28.0229 184.7L28.2628 182.292L28.5252 179.874L28.8114 177.444L29.1227 175.003L29.4605 172.552L29.8261 170.09L30.2209 167.619L30.6463 165.137L31.1035 162.647L31.5939 160.149L32.1189 157.642L32.6797 155.129L33.2776 152.609L33.9137 150.083L34.5893 147.553L35.3053 145.018L36.063 142.48L36.8631 139.94L37.7067 137.398L38.5947 134.856L39.5279 132.315L40.5071 129.775L41.5333 127.238L42.6072 124.705L43.7296 122.177L44.9013 119.655L46.1228 117.141L47.3948 114.636L48.718 112.141L50.0927 109.658L51.5196 107.188L52.9989 104.733L54.5311 102.293L56.1163 99.8713L57.7548 97.468L59.4467 95.0851L61.192 92.7239L62.9908 90.3859L64.8428 88.0725L66.748 85.7851L68.7061 83.5251L70.7166 81.2939L72.7793 79.0928L74.8936 76.9231L77.059 74.786L79.2748 72.6827L81.5404 70.6145L83.8553 68.5826L86.2185 66.5882L88.6295 64.6326L91.0873 62.717L93.5912 60.8424L96.1403 59.0101L98.7336 57.2212L101.37 55.4767L104.049 53.7776L106.769 52.125L109.529 50.5198L112.327 48.9629L115.164 47.455L118.036 45.997L120.944 44.5894L123.886 43.233L126.86 41.9283L129.865 40.6758L132.9 39.4758L135.963 38.3287L139.053 37.2348L142.168 36.1943L145.307 35.2073L148.47 34.2739L151.653 33.394L154.856 32.5676L158.077 31.7945L161.316 31.0747L164.57 30.4078L167.839 29.7936L171.12 29.2318L174.414 28.722L177.718 28.264L181.031 27.8571L184.353 27.5012L187.682 27.1957L191.017 26.9403L194.357 26.7345L197.7 26.578L201.047 26.4703L204.395 26.4111L207.745 26.4L211.094 26.4369L214.443 26.5214L217.79 26.6533L221.134 26.8324L224.475 27.0586L227.811 27.3317L231.141 27.6514L234.466 28.0176L237.784 28.43L241.093 28.8884L244.394 29.3926L247.686 29.9422L250.967 30.5372L254.237 31.1772L257.495 31.8619L260.74 32.5911L263.972 33.3646L267.189 34.1821L270.392 35.0433L273.578 35.9479L276.748 36.8957L279.901 37.8863L283.035 38.9195L286.151 39.995L289.246 41.1125L292.322 42.2716L295.376 43.472L298.409 44.7135L301.419 45.9956L304.406 47.318L307.369 48.6803L310.307 50.0824L313.22 51.5239L316.107 53.0046L318.966 54.5244L321.798 56.0829L324.6 57.6802L327.373 59.3159L330.116 60.99L332.826 62.7022L335.504 64.4525L338.149 66.2405L340.759 68.066L343.334 69.9289L345.872 71.8289L348.372 73.7656L350.834 75.7387L353.256 77.7479L355.638 79.7927L357.978 81.8728L360.275 83.9876L362.529 86.1365L364.739 88.3191L366.903 90.5347L369.02 92.7827L371.091 95.0623L373.114 97.3729L375.087 99.7136L377.012 102.084L378.886 104.482L380.709 106.909L382.481 109.362L384.2 111.84L385.867 114.344L387.48 116.872L389.04 119.422L390.546 121.995L391.997 124.588L393.393 127.201L394.733 129.833L396.018 132.483L397.247 135.15L398.419 137.832L399.535 140.529L400.594 143.24L401.595 145.963L402.539 148.698L403.426 151.443L404.255 154.198L405.025 156.961L405.738 159.732L406.392 162.509L406.989 165.291L407.527 168.076L408.008 170.865L408.431 173.656L408.797 176.447L409.106 179.238L409.358 182.027L409.554 184.813L409.694 187.596L409.78 190.374L409.81 193.147L409.787 195.912L409.71 198.67L409.581 201.419L409.4 204.159L409.168 206.887L408.886 209.604L408.554 212.309L408.174 215.001L407.746 217.678L407.272 220.341L406.752 222.988L406.187 225.62L405.578 228.234L404.927 230.831L404.233 233.409Z" fill="url(#paint0_linear_3_171)"/>
<path d="M404.233 233.409V233.409ZM404.233 233.409L403.498 235.97L402.722 238.511L401.907 241.032L401.052 243.533L400.158 246.014L399.227 248.473L398.259 250.911L397.253 253.327L396.212 255.721L395.135 258.092L394.023 260.439L392.877 262.763L391.696 265.063L390.483 267.338L389.236 269.589L387.958 271.815L386.648 274.015L385.306 276.189L383.934 278.338L382.532 280.46L381.101 282.555L379.64 284.622L378.152 286.663L376.636 288.676L375.093 290.661L373.523 292.618L371.928 294.546L370.308 296.446L368.663 298.317L366.994 300.159L365.302 301.971L363.588 303.755L361.851 305.508L360.093 307.232L358.315 308.926L356.516 310.59L354.698 312.223L352.861 313.827L351.006 315.399L349.133 316.942L347.243 318.453L345.336 319.933L343.413 321.383L341.474 322.801L339.52 324.187L337.551 325.542L335.568 326.866L333.571 328.157L331.562 329.417L329.54 330.645L327.506 331.841L325.461 333.005L323.405 334.137L321.34 335.236L319.265 336.304L317.181 337.34L315.09 338.344L312.992 339.317L310.887 340.258L308.776 341.168L306.66 342.046L304.54 342.894L302.416 343.711L300.288 344.497L298.159 345.254L296.028 345.981L293.896 346.679L291.763 347.348L289.631 347.988L287.5 348.601L285.371 349.186L283.244 349.744L281.12 350.276L278.999 350.783L276.883 351.265L274.771 351.724L272.666 352.159L270.566 352.573L268.473 352.966L266.387 353.339L264.308 353.694L262.238 354.031L260.176 354.351L258.123 354.657L256.078 354.948L254.043 355.228L252.017 355.495L250 355.753L247.993 356.002L245.994 356.244L244.005 356.479L242.025 356.709L240.052 356.935L238.088 357.159L236.132 357.382L234.182 357.604L232.24 357.826L230.302 358.051L228.37 358.278L226.443 358.508L224.518 358.743L222.596 358.983L220.676 359.228L218.757 359.48L216.837 359.737L214.915 360.002L212.991 360.273L211.064 360.552L209.131 360.837L207.193 361.13L205.248 361.429L203.295 361.734L201.332 362.045L199.36 362.36L197.377 362.68L195.381 363.003L193.372 363.328L191.35 363.654L189.313 363.98L187.261 364.304L185.193 364.625L183.109 364.942L181.008 365.253L178.889 365.556L176.754 365.85L174.6 366.134L172.429 366.405L170.241 366.663L168.034 366.905L165.811 367.129L163.57 367.335L161.312 367.52L159.038 367.683L156.749 367.822L154.444 367.935L152.125 368.021L149.792 368.079L147.447 368.106L145.09 368.101L142.722 368.063L140.344 367.99L137.959 367.881L135.566 367.735L133.167 367.55L130.764 367.326L128.358 367.061L125.95 366.754L123.542 366.405L121.136 366.011L118.733 365.573L116.335 365.089L113.943 364.559L111.56 363.982L109.187 363.358L106.826 362.686L104.479 361.965L102.147 361.196L99.832 360.378L97.5362 359.511L95.2612 358.595L93.0086 357.631L90.7802 356.618L88.5776 355.556L86.4024 354.446L84.2562 353.289L82.1404 352.085L80.0565 350.834L78.006 349.538L75.99 348.197L74.0099 346.811L72.0668 345.382L70.1618 343.912L68.2959 342.399L66.47 340.847L64.685 339.256L62.9416 337.627L61.2405 335.961L59.5823 334.26L57.9676 332.525L56.3967 330.757L54.8701 328.958L53.388 327.128L51.9507 325.27L50.5582 323.384L49.2107 321.471L47.9083 319.534L46.6508 317.572L45.4383 315.589L44.2706 313.584L43.1476 311.559L42.0692 309.515L41.0351 307.453L40.0449 305.375L39.0985 303.281L38.1952 301.173L37.3345 299.052L36.5158 296.919L35.7385 294.774L35.0018 292.62L34.3048 290.456L33.6466 288.284L33.0264 286.106L32.443 283.92L31.8955 281.729L31.3827 279.534L30.9035 277.334L30.4567 275.131L30.0411 272.925L29.6554 270.717L29.2986 268.506L28.9691 266.294L28.6659 264.082L28.3877 261.868L28.1331 259.653L27.901 257.438L27.6901 255.223L27.4992 253.007L27.3273 250.79L27.1731 248.573L27.0356 246.356L26.9139 244.137L26.8069 241.917L26.714 239.695L26.6343 237.472L26.5671 235.246L26.5119 233.017L26.4681 230.785L26.4353 228.549L26.4132 226.31L26.4016 224.065L26.4003 221.815L26.4092 219.559L26.4285 217.297L26.4581 215.028L26.4985 212.752L26.5499 210.468L26.6127 208.175L26.6875 205.873L26.7748 203.562L26.8754 201.242L26.9899 198.911L27.1192 196.57L27.2644 194.218L27.4262 191.855L27.6058 189.481L27.8044 187.096L28.0229 184.7L28.2628 182.292L28.5252 179.874L28.8114 177.444L29.1227 175.003L29.4605 172.552L29.8261 170.09L30.2209 167.619L30.6463 165.137L31.1035 162.647L31.5939 160.149L32.1189 157.642L32.6797 155.129L33.2776 152.609L33.9137 150.083L34.5893 147.553L35.3053 145.018L36.063 142.48L36.8631 139.94L37.7067 137.398L38.5947 134.856L39.5279 132.315L40.5071 129.775L41.5333 127.238L42.6072 124.705L43.7296 122.177L44.9013 119.655L46.1228 117.141L47.3948 114.636L48.718 112.141L50.0927 109.658L51.5196 107.188L52.9989 104.733L54.5311 102.293L56.1163 99.8713L57.7548 97.468L59.4467 95.0851L61.192 92.7239L62.9908 90.3859L64.8428 88.0725L66.748 85.7851L68.7061 83.5251L70.7166 81.2939L72.7793 79.0928L74.8936 76.9231L77.059 74.786L79.2748 72.6827L81.5404 70.6145L83.8553 68.5826L86.2185 66.5882L88.6295 64.6326L91.0873 62.717L93.5912 60.8424L96.1403 59.0101L98.7336 57.2212L101.37 55.4767L104.049 53.7776L106.769 52.125L109.529 50.5198L112.327 48.9629L115.164 47.455L118.036 45.997L120.944 44.5894L123.886 43.233L126.86 41.9283L129.865 40.6758L132.9 39.4758L135.963 38.3287L139.053 37.2348L142.168 36.1943L145.307 35.2073L148.47 34.2739L151.653 33.394L154.856 32.5676L158.077 31.7945L161.316 31.0747L164.57 30.4078L167.839 29.7936L171.12 29.2318L174.414 28.722L177.718 28.264L181.031 27.8571L184.353 27.5012L187.682 27.1957L191.017 26.9403L194.357 26.7345L197.7 26.578L201.047 26.4703L204.395 26.4111L207.745 26.4L211.094 26.4369L214.443 26.5214L217.79 26.6533L221.134 26.8324L224.475 27.0586L227.811 27.3317L231.141 27.6514L234.466 28.0176L237.784 28.43L241.093 28.8884L244.394 29.3926L247.686 29.9422L250.967 30.5372L254.237 31.1772L257.495 31.8619L260.74 32.5911L263.972 33.3646L267.189 34.1821L270.392 35.0433L273.578 35.9479L276.748 36.8957L279.901 37.8863L283.035 38.9195L286.151 39.995L289.246 41.1125L292.322 42.2716L295.376 43.472L298.409 44.7135L301.419 45.9956L304.406 47.318L307.369 48.6803L310.307 50.0824L313.22 51.5239L316.107 53.0046L318.966 54.5244L321.798 56.0829L324.6 57.6802L327.373 59.3159L330.116 60.99L332.826 62.7022L335.504 64.4525L338.149 66.2405L340.759 68.066L343.334 69.9289L345.872 71.8289L348.372 73.7656L350.834 75.7387L353.256 77.7479L355.638 79.7927L357.978 81.8728L360.275 83.9876L362.529 86.1365L364.739 88.3191L366.903 90.5347L369.02 92.7827L371.091 95.0623L373.114 97.3729L375.087 99.7136L377.012 102.084L378.886 104.482L380.709 106.909L382.481 109.362L384.2 111.84L385.867 114.344L387.48 116.872L389.04 119.422L390.546 121.995L391.997 124.588L393.393 127.201L394.733 129.833L396.018 132.483L397.247 135.15L398.419 137.832L399.535 140.529L400.594 143.24L401.595 145.963L402.539 148.698L403.426 151.443L404.255 154.198L405.025 156.961L405.738 159.732L406.392 162.509L406.989 165.291L407.527 168.076L408.008 170.865L408.431 173.656L408.797 176.447L409.106 179.238L409.358 182.027L409.554 184.813L409.694 187.596L409.78 190.374L409.81 193.147L409.787 195.912L409.71 198.67L409.581 201.419L409.4 204.159L409.168 206.887L408.886 209.604L408.554 212.309L408.174 215.001L407.746 217.678L407.272 220.341L406.752 222.988L406.187 225.62L405.578 228.234L404.927 230.831L404.233 233.409" stroke="#282828" stroke-width="2"/>
</g>
<defs>
<filter id="filter0_nf_3_171" x="0.000391006" y="2.47955e-05" width="436.21" height="394.506" filterUnits="userSpaceOnUse" color-interpolation-filters="sRGB">
<feFlood flood-opacity="0" result="BackgroundImageFix"/>
<feBlend mode="normal" in="SourceGraphic" in2="BackgroundImageFix" result="shape"/>
<feTurbulence type="fractalNoise" baseFrequency="2 2" stitchTiles="stitch" numOctaves="3" result="noise" seed="4538" />
<feColorMatrix in="noise" type="luminanceToAlpha" result="alphaNoise" />
<feComponentTransfer in="alphaNoise" result="coloredNoise1">
<feFuncA type="discrete" tableValues="1 1 1 1 1 1 1 1 1 1 1 1 1 1 1 1 1 1 1 1 1 1 1 1 1 1 1 1 1 1 1 1 1 1 1 1 1 1 1 1 1 1 1 1 1 1 1 1 1 1 1 0 0 0 0 0 0 0 0 0 0 0 0 0 0 0 0 0 0 0 0 0 0 0 0 0 0 0 0 0 0 0 0 0 0 0 0 0 0 0 0 0 0 0 0 0 0 0 0 0 "/>
</feComponentTransfer>
<feComposite operator="in" in2="shape" in="coloredNoise1" result="noise1Clipped" />
<feFlood flood-color="rgba(0, 0, 0, 0.25)" result="color1Flood" />
<feComposite operator="in" in2="noise1Clipped" in="color1Flood" result="color1" />
<feMerge result="effect1_noise_3_171">
<feMergeNode in="shape" />
<feMergeNode in="color1" />
</feMerge>
<feGaussianBlur stdDeviation="6.3" result="effect2_foregroundBlur_3_171"/>
</filter>
<linearGradient id="paint0_linear_3_171" x1="21.9473" y1="270.351" x2="443.962" y2="-38.0511" gradientUnits="userSpaceOnUse">
<stop stop-color="#4838BA"/>
<stop offset="1" stop-color="#C16131"/>
</linearGradient>
</defs>
</svg>
