<svg width="402" height="395" viewBox="0 0 402 395" fill="none" xmlns="http://www.w3.org/2000/svg">
<g filter="url(#filter0_nf_335_5)">
<path fill-rule="evenodd" clip-rule="evenodd" d="M387.286 233.409V233.409L386.551 235.97L385.775 238.511L384.959 241.032L384.105 243.533L383.211 246.014L382.28 248.473L381.311 250.911L380.306 253.327L379.265 255.721L378.188 258.092L377.076 260.439L375.929 262.763L374.749 265.063L373.536 267.338L372.289 269.589L371.011 271.815L369.7 274.015L368.359 276.189L366.987 278.338L365.585 280.459L364.153 282.554L362.693 284.622L361.205 286.663L359.689 288.676L358.146 290.661L356.576 292.618L354.981 294.546L353.36 296.446L351.716 298.317L350.047 300.159L348.355 301.971L346.64 303.755L344.904 305.508L343.146 307.232L341.368 308.926L339.569 310.59L337.751 312.223L335.914 313.827L334.059 315.399L332.186 316.942L330.296 318.453L328.389 319.933L326.466 321.383L324.527 322.801L322.573 324.187L320.604 325.542L318.621 326.866L316.624 328.157L314.615 329.417L312.592 330.645L310.559 331.841L308.513 333.005L306.458 334.136L304.392 335.236L302.318 336.304L300.234 337.34L298.143 338.344L296.044 339.317L293.939 340.258L291.829 341.168L289.713 342.046L287.592 342.894L285.468 343.711L283.341 344.497L281.212 345.254L279.081 345.981L276.949 346.679L274.816 347.348L272.684 347.988L270.553 348.601L268.424 349.186L266.296 349.744L264.172 350.276L262.052 350.783L259.936 351.265L257.824 351.724L255.718 352.159L253.619 352.573L251.525 352.966L249.439 353.339L247.361 353.694L245.291 354.03L243.229 354.351L241.175 354.657L239.131 354.948L237.096 355.228L235.07 355.495L233.053 355.753L231.045 356.002L229.047 356.243L227.058 356.479L225.077 356.709L223.105 356.935L221.141 357.159L219.185 357.382L217.235 357.604L215.292 357.826L213.355 358.051L211.423 358.278L209.495 358.508L207.571 358.743L205.649 358.983L203.729 359.228L201.809 359.479L199.889 359.737L197.968 360.002L196.044 360.273L194.116 360.552L192.184 360.837L190.246 361.13L188.301 361.429L186.348 361.734L184.385 362.045L182.413 362.36L180.429 362.68L178.434 363.003L176.425 363.328L174.403 363.654L172.366 363.98L170.314 364.304L168.246 364.625L166.161 364.942L164.06 365.253L161.942 365.556L159.806 365.85L157.653 366.134L155.482 366.405L153.293 366.663L151.087 366.905L148.863 367.129L146.623 367.335L144.365 367.52L142.091 367.683L139.801 367.822L137.497 367.935L135.178 368.021L132.845 368.079L130.499 368.105L128.142 368.101L125.774 368.063L123.397 367.99L121.011 367.881L118.619 367.735L116.22 367.55L113.817 367.326L111.41 367.061L109.003 366.754L106.595 366.405L104.189 366.011L101.786 365.573L99.3876 365.089L96.9962 364.559L94.613 363.982L92.24 363.358L89.8789 362.686L87.5315 361.965L85.1995 361.196L82.8847 360.378L80.5889 359.511L78.3139 358.595L76.0613 357.631L73.8329 356.618L71.6303 355.556L69.4551 354.446L67.3089 353.289L65.1931 352.085L63.1093 350.834L61.0587 349.538L59.0428 348.197L57.0626 346.811L55.1195 345.382L53.2145 343.912L51.3486 342.399L49.5227 340.847L47.7377 339.256L45.9943 337.627L44.2932 335.961L42.6351 334.26L41.0203 332.525L39.4495 330.757L37.9229 328.958L36.4408 327.128L35.0034 325.27L33.6109 323.384L32.2634 321.471L30.961 319.534L29.7035 317.572L28.491 315.589L27.3233 313.584L26.2004 311.559L25.1219 309.515L24.0878 307.453L23.0977 305.375L22.1512 303.281L21.2479 301.173L20.3872 299.052L19.5686 296.919L18.7913 294.774L18.0545 292.62L17.3575 290.456L16.6994 288.284L16.0791 286.106L15.4958 283.92L14.9482 281.729L14.4354 279.534L13.9562 277.334L13.5094 275.131L13.0938 272.925L12.7082 270.716L12.3513 268.506L12.0219 266.294L11.7187 264.081L11.4404 261.868L11.1858 259.653L10.9537 257.438L10.7428 255.223L10.552 253.007L10.38 250.79L10.2258 248.573L10.0883 246.356L9.9666 244.137L9.85967 241.917L9.76673 239.695L9.68701 237.472L9.61984 235.246L9.56461 233.017L9.52082 230.785L9.48804 228.549L9.46596 226.31L9.45432 224.065L9.453 221.815L9.46194 219.559L9.48119 217.297L9.51088 215.028L9.55126 212.752L9.60265 210.468L9.66548 208.175L9.74025 205.873L9.82756 203.562L9.92809 201.242L10.0426 198.911L10.172 196.57L10.3171 194.218L10.4789 191.855L10.6586 189.481L10.8571 187.096L11.0757 184.7L11.3155 182.292L11.5779 179.874L11.8641 177.444L12.1755 175.003L12.5132 172.552L12.8789 170.09L13.2737 167.619L13.699 165.137L14.1562 162.647L14.6467 160.149L15.1716 157.642L15.7324 155.129L16.3303 152.609L16.9664 150.083L17.642 147.553L18.3581 145.018L19.1157 142.48L19.9159 139.94L20.7595 137.398L21.6474 134.856L22.5806 132.315L23.5599 129.775L24.5861 127.238L25.66 124.705L26.7824 122.177L27.954 119.655L29.1755 117.141L30.4475 114.636L31.7707 112.141L33.1455 109.658L34.5723 107.188L36.0516 104.733L37.5838 102.293L39.169 99.8713L40.8075 97.468L42.4994 95.0851L44.2448 92.7239L46.0435 90.3859L47.8956 88.0725L49.8008 85.7851L51.7588 83.5251L53.7694 81.2939L55.832 79.0928L57.9463 76.9231L60.1117 74.786L62.3275 72.6827L64.5932 70.6145L66.908 68.5826L69.2713 66.5882L71.6822 64.6326L74.1401 62.717L76.644 60.8424L79.193 59.0101L81.7863 57.2211L84.4229 55.4766L87.1016 53.7776L89.8215 52.125L92.5814 50.5198L95.3801 48.9629L98.2164 47.455L101.089 45.997L103.997 44.5894L106.938 43.233L109.913 41.9283L112.918 40.6757L115.952 39.4758L119.015 38.3287L122.105 37.2348L125.221 36.1943L128.36 35.2073L131.522 34.2739L134.705 33.394L137.909 32.5676L141.13 31.7945L144.369 31.0747L147.623 30.4078L150.891 29.7936L154.173 29.2318L157.467 28.722L160.771 28.2639L164.084 27.8571L167.406 27.5012L170.735 27.1957L174.07 26.9403L177.409 26.7345L180.753 26.5779L184.1 26.4702L187.448 26.411L190.798 26.4L194.147 26.4369L197.496 26.5213L200.843 26.6532L204.187 26.8324L207.527 27.0586L210.863 27.3317L214.194 27.6514L217.519 28.0176L220.836 28.43L224.146 28.8884L227.447 29.3926L230.738 29.9422L234.02 30.5372L237.29 31.1771L240.548 31.8619L243.793 32.5911L247.025 33.3646L250.242 34.1821L253.444 35.0433L256.631 35.9479L259.801 36.8957L262.953 37.8863L266.088 38.9195L269.203 39.995L272.299 41.1125L275.375 42.2716L278.429 43.472L281.462 44.7134L284.472 45.9955L287.459 47.3179L290.422 48.6803L293.36 50.0824L296.273 51.5239L299.159 53.0046L302.019 54.5244L304.85 56.0829L307.653 57.6802L310.426 59.3159L313.168 60.99L315.879 62.7022L318.557 64.4524L321.202 66.2404L323.812 68.066L326.386 69.9289L328.924 71.8288L331.425 73.7656L333.887 75.7387L336.309 77.7479L338.69 79.7927L341.031 81.8728L343.328 83.9876L345.582 86.1365L347.791 88.3191L349.955 90.5347L352.073 92.7827L354.144 95.0623L356.166 97.3729L358.14 99.7136L360.064 102.084L361.939 104.482L363.762 106.909L365.533 109.362L367.253 111.84L368.92 114.344L370.533 116.872L372.093 119.422L373.598 121.995L375.049 124.588L376.445 127.201L377.786 129.833L379.071 132.483L380.299 135.15L381.472 137.832L382.587 140.529L383.646 143.24L384.648 145.963L385.592 148.698L386.479 151.443L387.307 154.198L388.078 156.961L388.791 159.732L389.445 162.509L390.041 165.291L390.58 168.076L391.061 170.865L391.484 173.656L391.85 176.447L392.158 179.238L392.411 182.027L392.607 184.813L392.747 187.596L392.832 190.374L392.863 193.147L392.84 195.912L392.763 198.67L392.634 201.419L392.453 204.159L392.221 206.887L391.938 209.604L391.607 212.309L391.227 215.001L390.799 217.678L390.324 220.341L389.804 222.988L389.24 225.62L388.631 228.234L387.979 230.831L387.286 233.409" fill="url(#paint0_linear_335_5)"/>
<path d="M387.286 233.409V233.409ZM387.286 233.409L386.551 235.97L385.775 238.511L384.959 241.032L384.105 243.533L383.211 246.014L382.28 248.473L381.311 250.911L380.306 253.327L379.265 255.721L378.188 258.092L377.076 260.439L375.929 262.763L374.749 265.063L373.536 267.338L372.289 269.589L371.011 271.815L369.7 274.015L368.359 276.189L366.987 278.338L365.585 280.459L364.153 282.554L362.693 284.622L361.205 286.663L359.689 288.676L358.146 290.661L356.576 292.618L354.981 294.546L353.36 296.446L351.716 298.317L350.047 300.159L348.355 301.971L346.64 303.755L344.904 305.508L343.146 307.232L341.368 308.926L339.569 310.59L337.751 312.223L335.914 313.827L334.059 315.399L332.186 316.942L330.296 318.453L328.389 319.933L326.466 321.383L324.527 322.801L322.573 324.187L320.604 325.542L318.621 326.866L316.624 328.157L314.615 329.417L312.592 330.645L310.559 331.841L308.513 333.005L306.458 334.136L304.392 335.236L302.318 336.304L300.234 337.34L298.143 338.344L296.044 339.317L293.939 340.258L291.829 341.168L289.713 342.046L287.592 342.894L285.468 343.711L283.341 344.497L281.212 345.254L279.081 345.981L276.949 346.679L274.816 347.348L272.684 347.988L270.553 348.601L268.424 349.186L266.296 349.744L264.172 350.276L262.052 350.783L259.936 351.265L257.824 351.724L255.718 352.159L253.619 352.573L251.525 352.966L249.439 353.339L247.361 353.694L245.291 354.03L243.229 354.351L241.175 354.657L239.131 354.948L237.096 355.228L235.07 355.495L233.053 355.753L231.045 356.002L229.047 356.243L227.058 356.479L225.077 356.709L223.105 356.935L221.141 357.159L219.185 357.382L217.235 357.604L215.292 357.826L213.355 358.051L211.423 358.278L209.495 358.508L207.571 358.743L205.649 358.983L203.729 359.228L201.809 359.479L199.889 359.737L197.968 360.002L196.044 360.273L194.116 360.552L192.184 360.837L190.246 361.13L188.301 361.429L186.348 361.734L184.385 362.045L182.413 362.36L180.429 362.68L178.434 363.003L176.425 363.328L174.403 363.654L172.366 363.98L170.314 364.304L168.246 364.625L166.161 364.942L164.06 365.253L161.942 365.556L159.806 365.85L157.653 366.134L155.482 366.405L153.293 366.663L151.087 366.905L148.863 367.129L146.623 367.335L144.365 367.52L142.091 367.683L139.801 367.822L137.497 367.935L135.178 368.021L132.845 368.079L130.499 368.105L128.142 368.101L125.774 368.063L123.397 367.99L121.011 367.881L118.619 367.735L116.22 367.55L113.817 367.326L111.41 367.061L109.003 366.754L106.595 366.405L104.189 366.011L101.786 365.573L99.3876 365.089L96.9962 364.559L94.613 363.982L92.24 363.358L89.8789 362.686L87.5315 361.965L85.1995 361.196L82.8847 360.378L80.5889 359.511L78.3139 358.595L76.0613 357.631L73.8329 356.618L71.6303 355.556L69.4551 354.446L67.3089 353.289L65.1931 352.085L63.1093 350.834L61.0587 349.538L59.0428 348.197L57.0626 346.811L55.1195 345.382L53.2145 343.912L51.3486 342.399L49.5227 340.847L47.7377 339.256L45.9943 337.627L44.2932 335.961L42.6351 334.26L41.0203 332.525L39.4495 330.757L37.9229 328.958L36.4408 327.128L35.0034 325.27L33.6109 323.384L32.2634 321.471L30.961 319.534L29.7035 317.572L28.491 315.589L27.3233 313.584L26.2004 311.559L25.1219 309.515L24.0878 307.453L23.0977 305.375L22.1512 303.281L21.2479 301.173L20.3872 299.052L19.5686 296.919L18.7913 294.774L18.0545 292.62L17.3575 290.456L16.6994 288.284L16.0791 286.106L15.4958 283.92L14.9482 281.729L14.4354 279.534L13.9562 277.334L13.5094 275.131L13.0938 272.925L12.7082 270.716L12.3513 268.506L12.0219 266.294L11.7187 264.081L11.4404 261.868L11.1858 259.653L10.9537 257.438L10.7428 255.223L10.552 253.007L10.38 250.79L10.2258 248.573L10.0883 246.356L9.9666 244.137L9.85967 241.917L9.76673 239.695L9.68701 237.472L9.61984 235.246L9.56461 233.017L9.52082 230.785L9.48804 228.549L9.46596 226.31L9.45432 224.065L9.453 221.815L9.46194 219.559L9.48119 217.297L9.51088 215.028L9.55126 212.752L9.60265 210.468L9.66548 208.175L9.74025 205.873L9.82756 203.562L9.92809 201.242L10.0426 198.911L10.172 196.57L10.3171 194.218L10.4789 191.855L10.6586 189.481L10.8571 187.096L11.0757 184.7L11.3155 182.292L11.5779 179.874L11.8641 177.444L12.1755 175.003L12.5132 172.552L12.8789 170.09L13.2737 167.619L13.699 165.137L14.1562 162.647L14.6467 160.149L15.1716 157.642L15.7324 155.129L16.3303 152.609L16.9664 150.083L17.642 147.553L18.3581 145.018L19.1157 142.48L19.9159 139.94L20.7595 137.398L21.6474 134.856L22.5806 132.315L23.5599 129.775L24.5861 127.238L25.66 124.705L26.7824 122.177L27.954 119.655L29.1755 117.141L30.4475 114.636L31.7707 112.141L33.1455 109.658L34.5723 107.188L36.0516 104.733L37.5838 102.293L39.169 99.8713L40.8075 97.468L42.4994 95.0851L44.2448 92.7239L46.0435 90.3859L47.8956 88.0725L49.8008 85.7851L51.7588 83.5251L53.7694 81.2939L55.832 79.0928L57.9463 76.9231L60.1117 74.786L62.3275 72.6827L64.5932 70.6145L66.908 68.5826L69.2713 66.5882L71.6822 64.6326L74.1401 62.717L76.644 60.8424L79.193 59.0101L81.7863 57.2211L84.4229 55.4766L87.1016 53.7776L89.8215 52.125L92.5814 50.5198L95.3801 48.9629L98.2164 47.455L101.089 45.997L103.997 44.5894L106.938 43.233L109.913 41.9283L112.918 40.6757L115.952 39.4758L119.015 38.3287L122.105 37.2348L125.221 36.1943L128.36 35.2073L131.522 34.2739L134.705 33.394L137.909 32.5676L141.13 31.7945L144.369 31.0747L147.623 30.4078L150.891 29.7936L154.173 29.2318L157.467 28.722L160.771 28.2639L164.084 27.8571L167.406 27.5012L170.735 27.1957L174.07 26.9403L177.409 26.7345L180.753 26.5779L184.1 26.4702L187.448 26.411L190.798 26.4L194.147 26.4369L197.496 26.5213L200.843 26.6532L204.187 26.8324L207.527 27.0586L210.863 27.3317L214.194 27.6514L217.519 28.0176L220.836 28.43L224.146 28.8884L227.447 29.3926L230.738 29.9422L234.02 30.5372L237.29 31.1771L240.548 31.8619L243.793 32.5911L247.025 33.3646L250.242 34.1821L253.444 35.0433L256.631 35.9479L259.801 36.8957L262.953 37.8863L266.088 38.9195L269.203 39.995L272.299 41.1125L275.375 42.2716L278.429 43.472L281.462 44.7134L284.472 45.9955L287.459 47.3179L290.422 48.6803L293.36 50.0824L296.273 51.5239L299.159 53.0046L302.019 54.5244L304.85 56.0829L307.653 57.6802L310.426 59.3159L313.168 60.99L315.879 62.7022L318.557 64.4524L321.202 66.2404L323.812 68.066L326.386 69.9289L328.924 71.8288L331.425 73.7656L333.887 75.7387L336.309 77.7479L338.69 79.7927L341.031 81.8728L343.328 83.9876L345.582 86.1365L347.791 88.3191L349.955 90.5347L352.073 92.7827L354.144 95.0623L356.166 97.3729L358.14 99.7136L360.064 102.084L361.939 104.482L363.762 106.909L365.533 109.362L367.253 111.84L368.92 114.344L370.533 116.872L372.093 119.422L373.598 121.995L375.049 124.588L376.445 127.201L377.786 129.833L379.071 132.483L380.299 135.15L381.472 137.832L382.587 140.529L383.646 143.24L384.648 145.963L385.592 148.698L386.479 151.443L387.307 154.198L388.078 156.961L388.791 159.732L389.445 162.509L390.041 165.291L390.58 168.076L391.061 170.865L391.484 173.656L391.85 176.447L392.158 179.238L392.411 182.027L392.607 184.813L392.747 187.596L392.832 190.374L392.863 193.147L392.84 195.912L392.763 198.67L392.634 201.419L392.453 204.159L392.221 206.887L391.938 209.604L391.607 212.309L391.227 215.001L390.799 217.678L390.324 220.341L389.804 222.988L389.24 225.62L388.631 228.234L387.979 230.831L387.286 233.409" stroke="#282828" stroke-width="2"/>
</g>
<defs>
<filter id="filter0_nf_335_5" x="-16.9469" y="-5.72205e-06" width="436.21" height="394.506" filterUnits="userSpaceOnUse" color-interpolation-filters="sRGB">
<feFlood flood-opacity="0" result="BackgroundImageFix"/>
<feBlend mode="normal" in="SourceGraphic" in2="BackgroundImageFix" result="shape"/>
<feTurbulence type="fractalNoise" baseFrequency="2 2" stitchTiles="stitch" numOctaves="3" result="noise" seed="4538" />
<feColorMatrix in="noise" type="luminanceToAlpha" result="alphaNoise" />
<feComponentTransfer in="alphaNoise" result="coloredNoise1">
<feFuncA type="discrete" tableValues="1 1 1 1 1 1 1 1 1 1 1 1 1 1 1 1 1 1 1 1 1 1 1 1 1 1 1 1 1 1 1 1 1 1 1 1 1 1 1 1 1 1 1 1 1 1 1 1 1 1 1 0 0 0 0 0 0 0 0 0 0 0 0 0 0 0 0 0 0 0 0 0 0 0 0 0 0 0 0 0 0 0 0 0 0 0 0 0 0 0 0 0 0 0 0 0 0 0 0 0 "/>
</feComponentTransfer>
<feComposite operator="in" in2="shape" in="coloredNoise1" result="noise1Clipped" />
<feFlood flood-color="rgba(0, 0, 0, 0.25)" result="color1Flood" />
<feComposite operator="in" in2="noise1Clipped" in="color1Flood" result="color1" />
<feMerge result="effect1_noise_335_5">
<feMergeNode in="shape" />
<feMergeNode in="color1" />
</feMerge>
<feGaussianBlur stdDeviation="6.3" result="effect2_foregroundBlur_335_5"/>
</filter>
<linearGradient id="paint0_linear_335_5" x1="5" y1="270.351" x2="427.014" y2="-38.0511" gradientUnits="userSpaceOnUse">
<stop stop-color="#4838BA"/>
<stop offset="1" stop-color="#C16131"/>
</linearGradient>
</defs>
</svg>
