<svg width="402" height="563" viewBox="0 0 402 563" fill="none" xmlns="http://www.w3.org/2000/svg">
<g filter="url(#filter0_nf_349_22)">
<path fill-rule="evenodd" clip-rule="evenodd" d="M17.6178 232.807L18.146 228.981L18.7142 225.182L19.3218 221.412L19.968 217.67L20.6524 213.959L21.3742 210.278L22.1331 206.628L22.9284 203.01L23.7596 199.424L24.6262 195.872L25.5276 192.353L26.4635 188.869L27.4332 185.419L28.4364 182.006L29.4725 178.628L30.5409 175.286L31.6412 171.982L32.773 168.716L33.9356 165.488L35.1286 162.298L36.3513 159.148L37.6034 156.037L38.8842 152.967L40.1931 149.937L41.5297 146.947L42.8932 143.999L44.2833 141.093L45.6992 138.229L47.1403 135.407L48.6061 132.628L50.0961 129.892L51.6095 127.199L53.1457 124.549L54.7043 121.944L56.2846 119.382L57.8861 116.865L59.5081 114.392L61.1502 111.964L62.8117 109.581L64.4923 107.243L66.1913 104.95L67.9083 102.704L69.6429 100.503L71.3945 98.3477L73.1628 96.2392L74.9472 94.1774L76.7472 92.1623L78.5624 90.1943L80.392 88.2734L82.2357 86.3997L84.0928 84.5734L85.9627 82.7943L87.8448 81.0628L89.7384 79.3785L91.6431 77.7416L93.558 76.152L95.4826 74.6094L97.4162 73.1138L99.3581 71.6649L101.308 70.2625L103.264 68.9064L105.227 67.5961L107.195 66.3312L109.169 65.1115L111.146 63.9364L113.128 62.8053L115.112 61.7178L117.098 60.6732L119.086 59.6709L121.075 58.7102L123.064 57.7903L125.052 56.9103L127.04 56.0693L129.026 55.2663L131.009 54.4998L132.99 53.7689L134.967 53.072L136.939 52.4078L138.906 51.7748L140.868 51.1713L142.824 50.5957L144.774 50.0465L146.716 49.5216L148.652 49.0194L150.58 48.5381L152.499 48.0757L154.411 47.6303L156.315 47.2002L158.211 46.7833L160.098 46.3778L161.977 45.9818L163.848 45.5934L165.712 45.2108L167.567 44.8323L169.416 44.4561L171.258 44.0806L173.094 43.7042L174.924 43.3254L176.749 42.9428L178.57 42.5553L180.387 42.1614L182.202 41.7602L184.014 41.3509L185.826 40.9325L187.638 40.5045L189.45 40.0664L191.265 39.6179L193.082 39.1588L194.904 38.6892L196.73 38.2093L198.563 37.7194L200.403 37.2202L202.251 36.7124L204.109 36.197L205.977 35.6753L207.856 35.1485L209.748 34.6182L211.652 34.0863L213.571 33.5545L215.504 33.0247L217.452 32.4991L219.416 31.9797L221.397 31.4686L223.394 30.9684L225.409 30.4811L227.441 30.0092L229.49 29.5552L231.558 29.1215L233.643 28.7105L235.746 28.3248L237.867 27.9668L240.005 27.6392L242.16 27.3443L244.332 27.0847L246.52 26.8628L248.723 26.6811L250.941 26.5419L253.174 26.4474L255.419 26.4L257.677 26.4019L259.947 26.4552L262.227 26.5618L264.516 26.7238L266.813 26.9429L269.117 27.2209L271.427 27.5595L273.741 27.9605L276.058 28.4252L278.377 28.955L280.695 29.5515L283.012 30.2158L285.326 30.949L287.635 31.7522L289.937 32.6262L292.231 33.5718L294.516 34.5896L296.789 35.68L299.049 36.8434L301.294 38.08L303.522 39.3899L305.733 40.773L307.924 42.229L310.093 43.7576L312.24 45.3583L314.362 47.0305L316.458 48.7733L318.527 50.586L320.567 52.4675L322.578 54.4167L324.557 56.4324L326.504 58.5131L328.417 60.6577L330.296 62.8644L332.14 65.1317L333.947 67.458L335.717 69.8415L337.449 72.2804L339.143 74.773L340.798 77.3173L342.413 79.9115L343.988 82.5536L345.523 85.2417L347.017 87.9738L348.47 90.7481L349.882 93.5625L351.253 96.4152L352.582 99.3042L353.871 102.228L355.118 105.184L356.323 108.171L357.488 111.187L358.611 114.231L359.694 117.3L360.736 120.394L361.738 123.509L362.701 126.646L363.624 129.801L364.508 132.974L365.355 136.162L366.164 139.365L366.937 142.581L367.674 145.809L368.377 149.047L369.045 152.294L369.681 155.549L370.286 158.811L370.859 162.079L371.403 165.352L371.919 168.629L372.407 171.909L372.87 175.193L373.307 178.478L373.721 181.766L374.112 185.055L374.482 188.345L374.832 191.637L375.162 194.93L375.475 198.224L375.771 201.519L376.051 204.816L376.316 208.114L376.567 211.415L376.805 214.718L377.03 218.025L377.243 221.335L377.446 224.65L377.637 227.97L377.819 231.296L377.99 234.628L378.152 237.968L378.305 241.315L378.448 244.672L378.581 248.038L378.705 251.415L378.82 254.803L378.924 258.203L379.019 261.616L379.102 265.042L379.174 268.483L379.234 271.938L379.282 275.409L379.316 278.895L379.335 282.398L379.34 285.917L379.328 289.453L379.299 293.007L379.252 296.577L379.185 300.165L379.098 303.77L378.989 307.392L378.856 311.031L378.699 314.686L378.516 318.357L378.306 322.044L378.067 325.745L377.799 329.461L377.5 333.19L377.168 336.931L376.803 340.684L376.403 344.448L375.966 348.221L375.493 352.002L374.981 355.79L374.43 359.583L373.838 363.381L373.205 367.183L372.53 370.986L371.812 374.789L371.05 378.59L370.243 382.389L369.39 386.183L368.491 389.971L367.544 393.75L366.549 397.519L365.506 401.275L364.413 405.018L363.27 408.744L362.077 412.452L360.833 416.14L359.537 419.805L358.19 423.446L356.791 427.06L355.339 430.644L353.835 434.198L352.279 437.719L350.67 441.204L349.009 444.651L347.295 448.059L345.53 451.425L343.713 454.748L341.845 458.026L339.926 461.256L337.956 464.436L335.937 467.566L333.869 470.643L331.752 473.665L329.586 476.631L327.374 479.538L325.115 482.385L322.81 485.17L320.459 487.892L318.065 490.549L315.628 493.139L313.148 495.661L310.627 498.113L308.065 500.495L305.465 502.804L302.826 505.04L300.151 507.201L297.44 509.288L294.695 511.298L291.916 513.231L289.106 515.087L286.266 516.864L283.396 518.563L280.498 520.184L277.574 521.725L274.625 523.187L271.651 524.57L268.656 525.874L265.639 527.099L262.603 528.245L259.548 529.312L256.475 530.302L253.387 531.213L250.284 532.048L247.167 532.806L244.038 533.488L240.898 534.095L237.748 534.626L234.588 535.084L231.421 535.467L228.246 535.777L225.066 536.015L221.88 536.181L218.69 536.275L215.497 536.297L212.302 536.249L209.105 536.13L205.907 535.941L202.71 535.682L199.514 535.353L196.32 534.954L193.128 534.486L189.94 533.949L186.757 533.344L183.578 532.67L180.406 531.928L177.241 531.119L174.083 530.242L170.933 529.299L167.793 528.289L164.663 527.213L161.543 526.071L158.435 524.864L155.339 523.592L152.255 522.255L149.186 520.854L146.131 519.389L143.091 517.861L140.067 516.27L137.059 514.616L134.069 512.901L131.097 511.124L128.143 509.286L125.209 507.387L122.295 505.429L119.402 503.41L116.531 501.333L113.682 499.197L110.856 497.002L108.054 494.748L105.277 492.436L102.526 490.067L99.8013 487.639L97.1042 485.154L94.4355 482.612L91.7962 480.013L89.1874 477.357L86.6098 474.645L84.0646 471.876L81.5527 469.053L79.0751 466.174L76.6328 463.24L74.2268 460.253L71.8581 457.212L69.5276 454.119L67.2362 450.973L64.985 447.777L62.7748 444.53L60.6065 441.234L58.481 437.89L56.3992 434.499L54.3617 431.062L52.3694 427.58L50.4231 424.055L48.5234 420.487L46.671 416.878L44.8666 413.229L43.1108 409.543L41.404 405.819L39.7469 402.06L38.14 398.267L36.5837 394.442L35.0785 390.586L33.6248 386.701L32.2229 382.788L30.8734 378.848L29.5764 374.884L28.3324 370.897L27.1417 366.888L26.0047 362.86L24.9215 358.812L23.8927 354.748L22.9182 350.668L21.9985 346.575L21.1336 342.469L20.3237 338.352L19.5687 334.227L18.8686 330.094L18.2233 325.956L17.6328 321.814L17.0968 317.669L16.6152 313.524L16.1875 309.38L15.8136 305.238L15.4929 301.1L15.2251 296.969L15.0097 292.844L14.8461 288.729L14.7339 284.624L14.6722 280.53L14.6607 276.45L14.6985 272.385L14.7848 268.335L14.9191 264.303L15.1004 260.289L15.328 256.295L15.601 252.322L15.9186 248.371L16.2798 244.443L16.6839 240.539L17.1302 236.661L17.6178 232.807Z" fill="url(#paint0_linear_349_22)"/>
<path fill-rule="evenodd" clip-rule="evenodd" d="M17.6178 232.807L18.146 228.981L18.7142 225.182L19.3218 221.412L19.968 217.67L20.6524 213.959L21.3742 210.278L22.1331 206.628L22.9284 203.01L23.7596 199.424L24.6262 195.872L25.5276 192.353L26.4635 188.869L27.4332 185.419L28.4364 182.006L29.4725 178.628L30.5409 175.286L31.6412 171.982L32.773 168.716L33.9356 165.488L35.1286 162.298L36.3513 159.148L37.6034 156.037L38.8842 152.967L40.1931 149.937L41.5297 146.947L42.8932 143.999L44.2833 141.093L45.6992 138.229L47.1403 135.407L48.6061 132.628L50.0961 129.892L51.6095 127.199L53.1457 124.549L54.7043 121.944L56.2846 119.382L57.8861 116.865L59.5081 114.392L61.1502 111.964L62.8117 109.581L64.4923 107.243L66.1913 104.95L67.9083 102.704L69.6429 100.503L71.3945 98.3477L73.1628 96.2392L74.9472 94.1774L76.7472 92.1623L78.5624 90.1943L80.392 88.2734L82.2357 86.3997L84.0928 84.5734L85.9627 82.7943L87.8448 81.0628L89.7384 79.3785L91.6431 77.7416L93.558 76.152L95.4826 74.6094L97.4162 73.1138L99.3581 71.6649L101.308 70.2625L103.264 68.9064L105.227 67.5961L107.195 66.3312L109.169 65.1115L111.146 63.9364L113.128 62.8053L115.112 61.7178L117.098 60.6732L119.086 59.6709L121.075 58.7102L123.064 57.7903L125.052 56.9103L127.04 56.0693L129.026 55.2663L131.009 54.4998L132.99 53.7689L134.967 53.072L136.939 52.4078L138.906 51.7748L140.868 51.1713L142.824 50.5957L144.774 50.0465L146.716 49.5216L148.652 49.0194L150.58 48.5381L152.499 48.0757L154.411 47.6303L156.315 47.2002L158.211 46.7833L160.098 46.3778L161.977 45.9818L163.848 45.5934L165.712 45.2108L167.567 44.8323L169.416 44.4561L171.258 44.0806L173.094 43.7042L174.924 43.3254L176.749 42.9428L178.57 42.5553L180.387 42.1614L182.202 41.7602L184.014 41.3509L185.826 40.9325L187.638 40.5045L189.45 40.0664L191.265 39.6179L193.082 39.1588L194.904 38.6892L196.73 38.2093L198.563 37.7194L200.403 37.2202L202.251 36.7124L204.109 36.197L205.977 35.6753L207.856 35.1485L209.748 34.6182L211.652 34.0863L213.571 33.5545L215.504 33.0247L217.452 32.4991L219.416 31.9797L221.397 31.4686L223.394 30.9684L225.409 30.4811L227.441 30.0092L229.49 29.5552L231.558 29.1215L233.643 28.7105L235.746 28.3248L237.867 27.9668L240.005 27.6392L242.16 27.3443L244.332 27.0847L246.52 26.8628L248.723 26.6811L250.941 26.5419L253.174 26.4474L255.419 26.4L257.677 26.4019L259.947 26.4552L262.227 26.5618L264.516 26.7238L266.813 26.9429L269.117 27.2209L271.427 27.5595L273.741 27.9605L276.058 28.4252L278.377 28.955L280.695 29.5515L283.012 30.2158L285.326 30.949L287.635 31.7522L289.937 32.6262L292.231 33.5718L294.516 34.5896L296.789 35.68L299.049 36.8434L301.294 38.08L303.522 39.3899L305.733 40.773L307.924 42.229L310.093 43.7576L312.24 45.3583L314.362 47.0305L316.458 48.7733L318.527 50.586L320.567 52.4675L322.578 54.4167L324.557 56.4324L326.504 58.5131L328.417 60.6577L330.296 62.8644L332.14 65.1317L333.947 67.458L335.717 69.8415L337.449 72.2804L339.143 74.773L340.798 77.3173L342.413 79.9115L343.988 82.5536L345.523 85.2417L347.017 87.9738L348.47 90.7481L349.882 93.5625L351.253 96.4152L352.582 99.3042L353.871 102.228L355.118 105.184L356.323 108.171L357.488 111.187L358.611 114.231L359.694 117.3L360.736 120.394L361.738 123.509L362.701 126.646L363.624 129.801L364.508 132.974L365.355 136.162L366.164 139.365L366.937 142.581L367.674 145.809L368.377 149.047L369.045 152.294L369.681 155.549L370.286 158.811L370.859 162.079L371.403 165.352L371.919 168.629L372.407 171.909L372.87 175.193L373.307 178.478L373.721 181.766L374.112 185.055L374.482 188.345L374.832 191.637L375.162 194.93L375.475 198.224L375.771 201.519L376.051 204.816L376.316 208.114L376.567 211.415L376.805 214.718L377.03 218.025L377.243 221.335L377.446 224.65L377.637 227.97L377.819 231.296L377.99 234.628L378.152 237.968L378.305 241.315L378.448 244.672L378.581 248.038L378.705 251.415L378.82 254.803L378.924 258.203L379.019 261.616L379.102 265.042L379.174 268.483L379.234 271.938L379.282 275.409L379.316 278.895L379.335 282.398L379.34 285.917L379.328 289.453L379.299 293.007L379.252 296.577L379.185 300.165L379.098 303.77L378.989 307.392L378.856 311.031L378.699 314.686L378.516 318.357L378.306 322.044L378.067 325.745L377.799 329.461L377.5 333.19L377.168 336.931L376.803 340.684L376.403 344.448L375.966 348.221L375.493 352.002L374.981 355.79L374.43 359.583L373.838 363.381L373.205 367.183L372.53 370.986L371.812 374.789L371.05 378.59L370.243 382.389L369.39 386.183L368.491 389.971L367.544 393.75L366.549 397.519L365.506 401.275L364.413 405.018L363.27 408.744L362.077 412.452L360.833 416.14L359.537 419.805L358.19 423.446L356.791 427.06L355.339 430.644L353.835 434.198L352.279 437.719L350.67 441.204L349.009 444.651L347.295 448.059L345.53 451.425L343.713 454.748L341.845 458.026L339.926 461.256L337.956 464.436L335.937 467.566L333.869 470.643L331.752 473.665L329.586 476.631L327.374 479.538L325.115 482.385L322.81 485.17L320.459 487.892L318.065 490.549L315.628 493.139L313.148 495.661L310.627 498.113L308.065 500.495L305.465 502.804L302.826 505.04L300.151 507.201L297.44 509.288L294.695 511.298L291.916 513.231L289.106 515.087L286.266 516.864L283.396 518.563L280.498 520.184L277.574 521.725L274.625 523.187L271.651 524.57L268.656 525.874L265.639 527.099L262.603 528.245L259.548 529.312L256.475 530.302L253.387 531.213L250.284 532.048L247.167 532.806L244.038 533.488L240.898 534.095L237.748 534.626L234.588 535.084L231.421 535.467L228.246 535.777L225.066 536.015L221.88 536.181L218.69 536.275L215.497 536.297L212.302 536.249L209.105 536.13L205.907 535.941L202.71 535.682L199.514 535.353L196.32 534.954L193.128 534.486L189.94 533.949L186.757 533.344L183.578 532.67L180.406 531.928L177.241 531.119L174.083 530.242L170.933 529.299L167.793 528.289L164.663 527.213L161.543 526.071L158.435 524.864L155.339 523.592L152.255 522.255L149.186 520.854L146.131 519.389L143.091 517.861L140.067 516.27L137.059 514.616L134.069 512.901L131.097 511.124L128.143 509.286L125.209 507.387L122.295 505.429L119.402 503.41L116.531 501.333L113.682 499.197L110.856 497.002L108.054 494.748L105.277 492.436L102.526 490.067L99.8013 487.639L97.1042 485.154L94.4355 482.612L91.7962 480.013L89.1874 477.357L86.6098 474.645L84.0646 471.876L81.5527 469.053L79.0751 466.174L76.6328 463.24L74.2268 460.253L71.8581 457.212L69.5276 454.119L67.2362 450.973L64.985 447.777L62.7748 444.53L60.6065 441.234L58.481 437.89L56.3992 434.499L54.3617 431.062L52.3694 427.58L50.4231 424.055L48.5234 420.487L46.671 416.878L44.8666 413.229L43.1108 409.543L41.404 405.819L39.7469 402.06L38.14 398.267L36.5837 394.442L35.0785 390.586L33.6248 386.701L32.2229 382.788L30.8734 378.848L29.5764 374.884L28.3324 370.897L27.1417 366.888L26.0047 362.86L24.9215 358.812L23.8927 354.748L22.9182 350.668L21.9985 346.575L21.1336 342.469L20.3237 338.352L19.5687 334.227L18.8686 330.094L18.2233 325.956L17.6328 321.814L17.0968 317.669L16.6152 313.524L16.1875 309.38L15.8136 305.238L15.4929 301.1L15.2251 296.969L15.0097 292.844L14.8461 288.729L14.7339 284.624L14.6722 280.53L14.6607 276.45L14.6985 272.385L14.7848 268.335L14.9191 264.303L15.1004 260.289L15.328 256.295L15.601 252.322L15.9186 248.371L16.2798 244.443L16.6839 240.539L17.1302 236.661L17.6178 232.807Z" stroke="#282828" stroke-width="2"/>
</g>
<defs>
<filter id="filter0_nf_349_22" x="-11.7389" y="1.90735e-06" width="417.479" height="562.697" filterUnits="userSpaceOnUse" color-interpolation-filters="sRGB">
<feFlood flood-opacity="0" result="BackgroundImageFix"/>
<feBlend mode="normal" in="SourceGraphic" in2="BackgroundImageFix" result="shape"/>
<feTurbulence type="fractalNoise" baseFrequency="2 2" stitchTiles="stitch" numOctaves="3" result="noise" seed="4538" />
<feColorMatrix in="noise" type="luminanceToAlpha" result="alphaNoise" />
<feComponentTransfer in="alphaNoise" result="coloredNoise1">
<feFuncA type="discrete" tableValues="1 1 1 1 1 1 1 1 1 1 1 1 1 1 1 1 1 1 1 1 1 1 1 1 1 1 1 1 1 1 1 1 1 1 1 1 1 1 1 1 1 1 1 1 1 1 1 1 1 1 1 0 0 0 0 0 0 0 0 0 0 0 0 0 0 0 0 0 0 0 0 0 0 0 0 0 0 0 0 0 0 0 0 0 0 0 0 0 0 0 0 0 0 0 0 0 0 0 0 0 "/>
</feComponentTransfer>
<feComposite operator="in" in2="shape" in="coloredNoise1" result="noise1Clipped" />
<feFlood flood-color="rgba(0, 0, 0, 0.25)" result="color1Flood" />
<feComposite operator="in" in2="noise1Clipped" in="color1Flood" result="color1" />
<feMerge result="effect1_noise_349_22">
<feMergeNode in="shape" />
<feMergeNode in="color1" />
</feMerge>
<feGaussianBlur stdDeviation="6.3" result="effect2_foregroundBlur_349_22"/>
</filter>
<linearGradient id="paint0_linear_349_22" x1="270.169" y1="78.4648" x2="-59.6126" y2="401.198" gradientUnits="userSpaceOnUse">
<stop stop-color="#4A4AC0"/>
<stop offset="1" stop-color="#EF5E16"/>
</linearGradient>
</defs>
</svg>
