<svg width="402" height="401" viewBox="0 0 402 401" fill="none" xmlns="http://www.w3.org/2000/svg">
<g filter="url(#filter0_nf_376_2)">
<path fill-rule="evenodd" clip-rule="evenodd" d="M373.983 206.137V206.137L375.015 207.754L376.035 209.393L377.043 211.053L378.037 212.734L379.016 214.436L379.98 216.159L380.927 217.903L381.855 219.669L382.765 221.455L383.656 223.261L384.525 225.089L385.372 226.936L386.195 228.804L386.994 230.691L387.768 232.597L388.514 234.523L389.231 236.467L389.918 238.428L390.573 240.407L391.193 242.403L391.777 244.414L392.322 246.439L392.825 248.478L393.284 250.529L393.696 252.59L394.058 254.661L394.367 256.738L394.618 258.821L394.81 260.907L394.939 262.993L395 265.078L394.991 267.158L394.908 269.231L394.748 271.293L394.508 273.342L394.185 275.375L393.777 277.388L393.282 279.378L392.698 281.343L392.024 283.278L391.257 285.181L390.399 287.048L389.447 288.877L388.402 290.663L387.264 292.406L386.034 294.101L384.713 295.746L383.302 297.339L381.803 298.878L380.219 300.36L378.552 301.783L376.804 303.147L374.98 304.45L373.083 305.691L371.116 306.87L369.084 307.986L366.991 309.038L364.842 310.029L362.642 310.957L360.395 311.825L358.108 312.633L355.784 313.383L353.431 314.078L351.052 314.719L348.654 315.309L346.242 315.852L343.821 316.35L341.397 316.807L338.975 317.226L336.559 317.612L334.154 317.969L331.766 318.302L329.398 318.614L327.055 318.91L324.74 319.195L322.456 319.475L320.208 319.753L317.998 320.035L315.828 320.326L313.7 320.63L311.616 320.952L309.578 321.296L307.586 321.668L305.641 322.072L303.743 322.51L301.892 322.988L300.087 323.509L298.328 324.076L296.613 324.693L294.94 325.361L293.307 326.083L291.713 326.862L290.155 327.698L288.63 328.594L287.134 329.549L285.665 330.564L284.22 331.638L282.794 332.772L281.384 333.965L279.986 335.214L278.596 336.517L277.21 337.873L275.825 339.278L274.435 340.729L273.038 342.222L271.629 343.753L270.205 345.317L268.762 346.91L267.296 348.525L265.804 350.156L264.283 351.796L262.73 353.438L261.143 355.075L259.518 356.698L257.854 358.3L256.149 359.872L254.402 361.407L252.614 362.897L250.782 364.334L248.908 365.71L246.992 367.018L245.036 368.253L243.041 369.407L241.008 370.475L238.94 371.452L236.84 372.331L234.71 373.107L232.553 373.778L230.373 374.337L228.173 374.781L225.957 375.108L223.729 375.315L221.493 375.4L219.254 375.361L217.015 375.197L214.781 374.907L212.556 374.492L210.345 373.953L208.152 373.289L205.981 372.504L203.836 371.598L201.722 370.576L199.642 369.439L197.6 368.191L195.6 366.837L193.644 365.382L191.735 363.829L189.876 362.186L188.07 360.457L186.318 358.649L184.621 356.768L182.982 354.822L181.4 352.817L179.877 350.76L178.412 348.66L177.004 346.524L175.654 344.36L174.359 342.175L173.118 339.978L171.929 337.776L170.789 335.578L169.696 333.391L168.647 331.223L167.637 329.08L166.662 326.971L165.72 324.901L164.804 322.879L163.911 320.909L163.035 318.998L162.172 317.15L161.315 315.372L160.46 313.667L159.602 312.039L158.734 310.492L157.851 309.029L156.949 307.651L156.022 306.361L155.064 305.159L154.071 304.047L153.039 303.024L151.963 302.089L150.838 301.241L149.662 300.479L148.43 299.8L147.141 299.202L145.79 298.68L144.378 298.232L142.901 297.853L141.359 297.538L139.751 297.283L138.077 297.082L136.337 296.93L134.533 296.822L132.664 296.751L130.734 296.712L128.744 296.698L126.697 296.704L124.595 296.723L122.443 296.75L120.243 296.779L117.999 296.804L115.714 296.822L113.392 296.828L111.035 296.816L108.648 296.784L106.234 296.728L103.796 296.644L101.338 296.529L98.8617 296.381L96.3713 296.198L93.8691 295.978L91.3575 295.718L88.8387 295.418L86.3148 295.078L83.7878 294.694L81.26 294.268L78.7333 293.798L76.2102 293.282L73.6927 292.722L71.1834 292.115L68.6845 291.461L66.1985 290.759L63.728 290.01L61.2756 289.213L58.8437 288.366L56.4351 287.471L54.0525 286.526L51.6985 285.533L49.3759 284.489L47.0873 283.397L44.8355 282.255L42.6232 281.065L40.453 279.825L38.3278 278.538L36.25 277.203L34.2224 275.82L32.2475 274.391L30.3277 272.917L28.4657 271.398L26.6637 269.835L24.924 268.23L23.2491 266.583L21.641 264.895L20.1019 263.169L18.6337 261.405L17.2384 259.604L15.9179 257.769L14.6738 255.901L13.5078 254.002L12.4215 252.073L11.4163 250.116L10.4934 248.133L9.6541 246.126L8.89949 244.097L8.23051 242.048L7.64801 239.98L7.15272 237.896L6.7452 235.798L6.42593 233.688L6.19521 231.569L6.05323 229.441L6 227.308L6.03542 225.171L6.1592 223.034L6.37092 220.897L6.67 218.763L7.05567 216.634L7.52702 214.512L8.08295 212.399L8.72221 210.298L9.44336 208.21L10.2448 206.137L11.1248 204.081L12.0813 202.043L13.1124 200.026L14.2156 198.032L15.3887 196.061L16.6291 194.115L17.9342 192.196L19.3013 190.304L20.7274 188.442L22.2098 186.609L23.7457 184.808L25.3319 183.038L26.9657 181.301L28.6439 179.597L30.3635 177.928L32.1212 176.292L33.9137 174.691L35.7373 173.125L37.5882 171.593L39.4623 170.095L41.3554 168.632L43.2631 167.201L45.1809 165.804L47.1044 164.437L49.0289 163.101L50.95 161.794L52.8629 160.513L54.7632 159.259L56.6465 158.028L58.5082 156.818L60.3441 155.628L62.15 154.454L63.9222 153.295L65.6569 152.147L67.3511 151.008L69.0021 149.876L70.6073 148.747L72.1648 147.619L73.6729 146.49L75.1305 145.357L76.5368 144.217L77.8912 143.068L79.1938 141.909L80.4448 140.736L81.645 139.547L82.7952 138.342L83.897 137.118L84.9517 135.874L85.9614 134.608L86.9282 133.32L87.8545 132.008L88.7428 130.672L89.596 129.311L90.417 127.925L91.2088 126.514L91.9748 125.078L92.7181 123.616L93.4422 122.13L94.1505 120.62L94.8463 119.087L95.5333 117.532L96.2147 115.956L96.8941 114.36L97.5747 112.746L98.2598 111.115L98.9527 109.469L99.6565 107.809L100.374 106.139L101.108 104.458L101.862 102.771L102.638 101.078L103.438 99.3819L104.265 97.6849L105.121 95.9891L106.007 94.2967L106.926 92.6101L107.879 90.9312L108.867 89.2624L109.891 87.6057L110.954 85.9632L112.054 84.3368L113.193 82.7284L114.372 81.14L115.59 79.5731L116.848 78.0294L118.146 76.5103L119.483 75.0173L120.859 73.5514L122.273 72.1138L123.725 70.7055L125.214 69.3271L126.739 67.9794L128.3 66.6628L129.895 65.3777L131.522 64.1243L133.182 62.9027L134.872 61.7128L136.592 60.5546L138.34 59.4278L140.115 58.3322L141.916 57.2676L143.742 56.2335L145.591 55.2297L147.464 54.2559L149.357 53.3117L151.272 52.3968L153.206 51.5107L155.159 50.6528L157.129 49.8222L159.116 49.0177L161.118 48.2379L163.135 47.4811L165.165 46.7456L167.207 46.0296L169.261 45.3312L171.326 44.6486L173.402 43.9797L175.487 43.3229L177.581 42.6763L179.685 42.0384L181.799 41.4077L183.921 40.7829L186.053 40.1629L188.194 39.5467L190.345 38.9336L192.506 38.3228L194.678 37.7139L196.861 37.1065L199.055 36.5005L201.261 35.8959L203.48 35.2929L205.712 34.6918L207.958 34.0934L210.217 33.4985L212.491 32.9082L214.781 32.3238L217.085 31.7467L219.405 31.1789L221.741 30.6222L224.093 30.0788L226.461 29.551L228.844 29.0414L231.243 28.5526L233.657 28.0874L236.085 27.6488L238.526 27.2397L240.98 26.8633L243.446 26.5226L245.922 26.2208L248.406 25.961L250.898 25.7464L253.396 25.5801L255.897 25.465L258.399 25.404L260.901 25.4L263.4 25.4556L265.893 25.5732L268.378 25.7553L270.853 26.004L273.314 26.3211L275.76 26.7084L278.186 27.1674L280.591 27.6993L282.972 28.3052L285.325 28.9857L287.648 29.7414L289.938 30.5725L292.193 31.479L294.409 32.4607L296.585 33.5171L298.717 34.6473L300.803 35.8505L302.842 37.1254L304.83 38.4707L306.766 39.8847L308.649 41.3658L310.475 42.9118L312.245 44.5208L313.955 46.1906L315.606 47.9187L317.195 49.7026L318.722 51.5399L320.186 53.4279L321.587 55.3638L322.923 57.3449L324.195 59.3683L325.402 61.4312L326.544 63.5306L327.621 65.6637L328.634 67.8273L329.583 70.0185L330.469 72.2341L331.293 74.4711L332.055 76.7263L332.757 78.9967L333.4 81.2791L333.986 83.5706L334.517 85.8682L334.993 88.169L335.418 90.4701L335.793 92.7688L336.12 95.0623L336.402 97.3479L336.641 99.6232L336.841 101.886L337.002 104.133L337.129 106.362L337.225 108.572L337.292 110.76L337.334 112.923L337.354 115.061L337.356 117.17L337.344 119.25L337.322 121.298L337.293 123.312L337.262 125.292L337.231 127.236L337.206 129.145L337.188 131.016L337.181 132.85L337.189 134.647L337.214 136.406L337.259 138.129L337.326 139.816L337.419 141.466L337.538 143.082L337.686 144.664L337.865 146.213L338.076 147.731L338.322 149.218L338.602 150.677L338.919 152.108L339.272 153.514L339.663 154.895L340.092 156.255L340.56 157.594L341.065 158.915L341.609 160.219L342.19 161.508L342.809 162.785L343.464 164.05L344.155 165.307L344.881 166.557L345.64 167.801L346.432 169.042L347.254 170.281L348.106 171.52L348.987 172.761L349.893 174.005L350.824 175.254L351.778 176.51L352.753 177.773L353.747 179.045L354.758 180.328L355.785 181.621L356.826 182.928L357.878 184.248L358.941 185.582L360.012 186.932L361.089 188.298L362.171 189.68L363.257 191.08L364.344 192.498L365.432 193.935L366.518 195.39L367.602 196.865L368.682 198.36L369.757 199.874L370.826 201.409L371.887 202.964L372.94 204.54L373.983 206.137" fill="url(#paint0_linear_376_2)"/>
</g>
<defs>
<filter id="filter0_nf_376_2" x="-19.4" y="1.90735e-06" width="439.8" height="400.8" filterUnits="userSpaceOnUse" color-interpolation-filters="sRGB">
<feFlood flood-opacity="0" result="BackgroundImageFix"/>
<feBlend mode="normal" in="SourceGraphic" in2="BackgroundImageFix" result="shape"/>
<feTurbulence type="fractalNoise" baseFrequency="1.1111111640930176 1.1111111640930176" stitchTiles="stitch" numOctaves="3" result="noise" seed="6510" />
<feColorMatrix in="noise" type="luminanceToAlpha" result="alphaNoise" />
<feComponentTransfer in="alphaNoise" result="coloredNoise1">
<feFuncA type="discrete" tableValues="1 1 1 1 1 1 1 1 1 1 1 1 1 1 1 1 1 1 1 1 1 1 1 1 1 1 1 1 1 1 1 1 1 1 1 1 1 1 1 1 1 1 1 1 1 1 1 1 1 1 1 0 0 0 0 0 0 0 0 0 0 0 0 0 0 0 0 0 0 0 0 0 0 0 0 0 0 0 0 0 0 0 0 0 0 0 0 0 0 0 0 0 0 0 0 0 0 0 0 0 "/>
</feComponentTransfer>
<feComposite operator="in" in2="shape" in="coloredNoise1" result="noise1Clipped" />
<feFlood flood-color="rgba(0, 0, 0, 0.25)" result="color1Flood" />
<feComposite operator="in" in2="noise1Clipped" in="color1Flood" result="color1" />
<feMerge result="effect1_noise_376_2">
<feMergeNode in="shape" />
<feMergeNode in="color1" />
</feMerge>
<feGaussianBlur stdDeviation="6.3" result="effect2_foregroundBlur_376_2"/>
</filter>
<linearGradient id="paint0_linear_376_2" x1="173.023" y1="14.3015" x2="111.645" y2="328.253" gradientUnits="userSpaceOnUse">
<stop stop-color="#EF5E16"/>
<stop offset="1" stop-color="#4838BA"/>
</linearGradient>
</defs>
</svg>
