<svg width="402" height="432" viewBox="0 0 402 432" fill="none" xmlns="http://www.w3.org/2000/svg">
<g filter="url(#filter0_nf_335_4)">
<path fill-rule="evenodd" clip-rule="evenodd" d="M372.199 222.145V222.145L373.22 223.906L374.23 225.69L375.228 227.496L376.211 229.326L377.181 231.179L378.134 233.055L379.071 234.954L379.991 236.875L380.891 238.819L381.772 240.786L382.632 242.775L383.471 244.786L384.286 246.819L385.077 248.874L385.842 250.949L386.58 253.045L387.29 255.161L387.97 257.297L388.618 259.451L389.232 261.623L389.81 263.812L390.349 266.017L390.847 268.236L391.302 270.469L391.71 272.713L392.068 274.967L392.373 277.228L392.622 279.495L392.812 281.766L392.939 284.037L393 286.306L392.991 288.571L392.909 290.827L392.751 293.072L392.513 295.303L392.194 297.516L391.79 299.707L391.3 301.874L390.722 304.012L390.054 306.119L389.296 308.19L388.446 310.222L387.504 312.213L386.469 314.158L385.343 316.055L384.126 317.9L382.818 319.691L381.422 321.425L379.939 323.1L378.371 324.713L376.721 326.263L374.992 327.748L373.186 329.166L371.308 330.517L369.361 331.8L367.35 333.015L365.279 334.161L363.152 335.239L360.974 336.249L358.751 337.194L356.487 338.074L354.188 338.89L351.858 339.647L349.504 340.345L347.131 340.987L344.744 341.578L342.348 342.12L339.948 342.617L337.551 343.074L335.16 343.494L332.78 343.883L330.416 344.244L328.073 344.584L325.753 344.907L323.462 345.217L321.202 345.522L318.977 345.824L316.79 346.131L314.642 346.448L312.536 346.779L310.474 347.129L308.456 347.504L306.485 347.909L304.56 348.348L302.682 348.826L300.85 349.346L299.063 349.913L297.322 350.531L295.624 351.202L293.969 351.929L292.353 352.715L290.775 353.563L289.233 354.474L287.723 355.448L286.243 356.488L284.79 357.592L283.359 358.762L281.948 359.997L280.552 361.295L279.168 362.654L277.793 364.073L276.421 365.549L275.05 367.079L273.675 368.658L272.292 370.284L270.897 371.95L269.488 373.653L268.06 375.386L266.609 377.144L265.133 378.92L263.627 380.705L262.09 382.493L260.519 384.274L258.911 386.041L257.264 387.785L255.577 389.497L253.848 391.168L252.078 392.789L250.265 394.353L248.41 395.851L246.514 397.276L244.578 398.62L242.603 399.876L240.591 401.039L238.545 402.102L236.466 403.059L234.358 403.904L232.224 404.634L230.066 405.243L227.889 405.727L225.695 406.083L223.49 406.308L221.277 406.4L219.061 406.357L216.845 406.179L214.634 405.864L212.432 405.412L210.243 404.825L208.073 404.102L205.924 403.247L203.802 402.262L201.71 401.148L199.651 399.911L197.63 398.553L195.65 397.079L193.714 395.494L191.825 393.805L189.985 392.016L188.198 390.133L186.463 388.165L184.784 386.118L183.162 383.999L181.597 381.816L180.089 379.578L178.639 377.292L177.246 374.966L175.909 372.61L174.628 370.232L173.4 367.841L172.223 365.444L171.095 363.051L170.013 360.67L168.974 358.31L167.975 355.977L167.01 353.681L166.077 351.429L165.171 349.227L164.287 347.083L163.42 345.002L162.566 342.991L161.718 341.055L160.872 339.199L160.022 337.427L159.163 335.743L158.29 334.15L157.397 332.65L156.479 331.246L155.531 329.938L154.549 328.727L153.527 327.613L152.462 326.595L151.349 325.673L150.184 324.843L148.966 324.104L147.689 323.453L146.353 322.885L144.955 322.397L143.493 321.984L141.967 321.642L140.376 321.364L138.719 321.145L136.997 320.98L135.211 320.862L133.362 320.785L131.451 320.742L129.482 320.727L127.455 320.734L125.376 320.754L123.246 320.784L121.069 320.815L118.847 320.843L116.586 320.863L114.287 320.868L111.955 320.856L109.593 320.821L107.203 320.76L104.79 320.668L102.357 320.543L99.9068 320.383L97.442 320.183L94.9655 319.943L92.4798 319.661L89.9869 319.334L87.4889 318.963L84.988 318.546L82.4861 318.082L79.9854 317.57L77.4882 317.009L74.9967 316.399L72.5131 315.738L70.0399 315.026L67.5795 314.263L65.1344 313.447L62.7072 312.579L60.3003 311.658L57.9165 310.683L55.5584 309.655L53.2286 308.573L50.9298 307.437L48.6648 306.248L46.4361 305.005L44.2466 303.709L42.0988 302.36L39.9954 300.959L37.939 299.505L35.9322 298L33.9776 296.445L32.0776 294.84L30.2347 293.186L28.4512 291.485L26.7295 289.737L25.0717 287.944L23.4802 286.108L21.9569 284.228L20.5038 282.308L19.1229 280.348L17.8159 278.351L16.5846 276.317L15.4306 274.25L14.3555 272.15L13.3606 270.02L12.4472 267.861L11.6165 265.676L10.8697 263.467L10.2076 261.236L9.63107 258.986L9.14086 256.717L8.73754 254.434L8.42155 252.137L8.19321 249.829L8.05268 247.513L8 245.191L8.03505 242.865L8.15756 240.538L8.36711 238.212L8.66311 235.889L9.04481 233.571L9.51131 231.262L10.0615 228.962L10.6942 226.674L11.408 224.401L12.2012 222.145L13.0721 219.907L14.0188 217.689L15.0392 215.493L16.1311 213.322L17.2922 211.176L18.5198 209.058L19.8115 206.969L21.1645 204.91L22.576 202.882L24.0432 200.888L25.5632 198.927L27.1332 197L28.7501 195.109L30.4111 193.255L32.113 191.437L33.8526 189.657L35.6267 187.914L37.4315 186.209L39.2634 184.541L41.1182 182.911L42.9919 181.318L44.8799 179.761L46.7781 178.239L48.6817 176.752L50.5865 175.297L52.4878 173.874L54.381 172.481L56.2618 171.115L58.1257 169.775L59.9683 168.458L61.7853 167.162L63.5727 165.885L65.3266 164.623L67.0435 163.373L68.7203 162.133L70.3542 160.901L71.943 159.672L73.4844 158.444L74.9771 157.215L76.4197 155.982L77.8115 154.741L79.152 153.491L80.4412 152.228L81.6793 150.951L82.8671 149.658L84.0056 148.346L85.096 147.013L86.1399 145.659L87.1392 144.281L88.096 142.879L89.0128 141.451L89.892 139.996L90.7364 138.515L91.5489 137.006L92.3326 135.47L93.0907 133.906L93.8264 132.315L94.5431 130.698L95.244 129.054L95.9328 127.385L96.6126 125.692L97.2871 123.977L97.9594 122.239L98.633 120.482L99.3111 118.707L99.9969 116.915L100.693 115.109L101.404 113.29L102.13 111.461L102.876 109.624L103.644 107.781L104.436 105.935L105.255 104.087L106.101 102.241L106.979 100.399L107.888 98.5629L108.831 96.7354L109.809 94.9188L110.823 93.1153L111.874 91.3273L112.964 89.5569L114.091 87.8061L115.258 86.077L116.463 84.3713L117.708 82.6909L118.993 81.0372L120.316 79.4119L121.677 77.8163L123.077 76.2514L124.514 74.7183L125.988 73.2178L127.498 71.7507L129.042 70.3175L130.621 68.9186L132.232 67.5542L133.874 66.2243L135.547 64.9291L137.249 63.6683L138.979 62.4417L140.736 61.2491L142.518 60.0901L144.326 58.9645L146.156 57.8718L148.009 56.8117L149.883 55.7839L151.778 54.7879L153.692 53.8233L155.625 52.8895L157.575 51.9853L159.542 51.1096L161.523 50.2606L163.519 49.4368L165.528 48.6362L167.55 47.8568L169.582 47.0966L171.626 46.3534L173.68 45.6254L175.744 44.9103L177.817 44.2065L179.899 43.512L181.991 42.8255L184.091 42.1453L186.201 41.4705L188.32 40.7997L190.449 40.1323L192.588 39.4674L194.738 38.8046L196.898 38.1434L199.07 37.4837L201.254 36.8255L203.45 36.1691L205.659 35.5148L207.881 34.8634L210.117 34.2158L212.368 33.5732L214.634 32.937L216.915 32.3089L219.211 31.6907L221.523 31.0847L223.85 30.4932L226.194 29.9187L228.553 29.3639L230.927 28.8318L233.316 28.3254L235.719 27.848L238.135 27.4027L240.564 26.9929L243.004 26.622L245.455 26.2935L247.914 26.0107L250.38 25.7771L252.852 25.596L255.327 25.4707L257.804 25.4044L260.28 25.4L262.753 25.4605L265.22 25.5886L267.68 25.7868L270.13 26.0575L272.566 26.4027L274.986 26.8243L277.388 27.3239L279.768 27.903L282.124 28.5625L284.453 29.3033L286.752 30.1259L289.019 31.0307L291.25 32.0175L293.443 33.0861L295.597 34.236L297.707 35.4663L299.772 36.7761L301.789 38.1639L303.757 39.6284L305.674 41.1677L307.537 42.7799L309.344 44.4629L311.096 46.2144L312.788 48.032L314.422 49.9132L315.995 51.8552L317.506 53.8552L318.955 55.9104L320.341 58.0177L321.664 60.1743L322.923 62.3769L324.117 64.6225L325.248 66.9079L326.314 69.2299L327.317 71.5851L328.256 73.9704L329.133 76.3823L329.948 78.8174L330.702 81.2724L331.397 83.7438L332.034 86.2284L332.614 88.7228L333.139 91.224L333.61 93.7285L334.031 96.2335L334.402 98.7357L334.726 101.232L335.005 103.72L335.242 106.197L335.439 108.66L335.599 111.106L335.724 113.533L335.819 115.939L335.885 118.32L335.927 120.676L335.947 123.002L335.949 125.299L335.937 127.562L335.915 129.791L335.886 131.984L335.855 134.14L335.825 136.256L335.8 138.333L335.782 140.37L335.776 142.367L335.784 144.323L335.808 146.238L335.853 148.114L335.919 149.95L336.011 151.747L336.129 153.506L336.275 155.228L336.452 156.914L336.662 158.566L336.905 160.185L337.182 161.773L337.496 163.331L337.845 164.861L338.232 166.365L338.657 167.845L339.12 169.303L339.62 170.74L340.158 172.16L340.733 173.564L341.345 174.953L341.994 176.331L342.678 177.699L343.396 179.059L344.147 180.413L344.931 181.764L345.745 183.113L346.589 184.462L347.46 185.813L348.357 187.167L349.278 188.527L350.222 189.894L351.187 191.269L352.171 192.654L353.172 194.05L354.188 195.458L355.218 196.88L356.26 198.317L357.312 199.77L358.371 201.239L359.438 202.726L360.509 204.231L361.583 205.755L362.66 207.299L363.736 208.862L364.811 210.447L365.884 212.052L366.953 213.679L368.017 215.327L369.075 216.998L370.125 218.691L371.167 220.407L372.199 222.145" fill="url(#paint0_linear_335_4)"/>
</g>
<defs>
<filter id="filter0_nf_335_4" x="-17.4" y="0" width="435.8" height="431.8" filterUnits="userSpaceOnUse" color-interpolation-filters="sRGB">
<feFlood flood-opacity="0" result="BackgroundImageFix"/>
<feBlend mode="normal" in="SourceGraphic" in2="BackgroundImageFix" result="shape"/>
<feTurbulence type="fractalNoise" baseFrequency="1.1111111640930176 1.1111111640930176" stitchTiles="stitch" numOctaves="3" result="noise" seed="6510" />
<feColorMatrix in="noise" type="luminanceToAlpha" result="alphaNoise" />
<feComponentTransfer in="alphaNoise" result="coloredNoise1">
<feFuncA type="discrete" tableValues="1 1 1 1 1 1 1 1 1 1 1 1 1 1 1 1 1 1 1 1 1 1 1 1 1 1 1 1 1 1 1 1 1 1 1 1 1 1 1 1 1 1 1 1 1 1 1 1 1 1 1 0 0 0 0 0 0 0 0 0 0 0 0 0 0 0 0 0 0 0 0 0 0 0 0 0 0 0 0 0 0 0 0 0 0 0 0 0 0 0 0 0 0 0 0 0 0 0 0 0 "/>
</feComponentTransfer>
<feComposite operator="in" in2="shape" in="coloredNoise1" result="noise1Clipped" />
<feFlood flood-color="rgba(0, 0, 0, 0.25)" result="color1Flood" />
<feComposite operator="in" in2="noise1Clipped" in="color1Flood" result="color1" />
<feMerge result="effect1_noise_335_4">
<feMergeNode in="shape" />
<feMergeNode in="color1" />
</feMerge>
<feGaussianBlur stdDeviation="6.3" result="effect2_foregroundBlur_335_4"/>
</filter>
<linearGradient id="paint0_linear_335_4" x1="55.5" y1="378.4" x2="373.479" y2="324.793" gradientUnits="userSpaceOnUse">
<stop stop-color="#EF5E16"/>
<stop offset="1" stop-color="#4838BA"/>
</linearGradient>
</defs>
</svg>
